<?xml version="1.0" encoding="UTF-8"?>
<svg id="Layer_1" data-name="Layer 1" xmlns="http://www.w3.org/2000/svg" viewBox="0 0 649.91 732.22">
  <defs>
    <style>
      .cls-1 {
        fill: #033095;
      }
    </style>
  </defs>
  <path class="cls-1" d="M406.76,445.57l-66.99,16.01-15.62.55c-19.77-4.05-66.24,1.54-81.51-11.98-7.51-6.65,3.66-41.33,7.59-50.11,7.13-15.91,21.33-24.4,37.92-28.06,4.23.41,16.29,14.84,25.01,17.13,20.9,5.49,35.15-1.88,47.01-18.45,37.76,6.58,55.44,38.69,46.58,74.9Z"/>
  <path class="cls-1" d="M408.61,707.6c-.48.89-4.78-.46-1.58,4.22-10.18,8.3-22.93,5.32-32.32,8.37-2.19.71-1.15,6.22-11.49,1.89l2.03,3.97c-12.52.46-26.51,6.16-39.02,6.18-13.85.03-41.26-4.06-55.68-6.48-5.7-.96-27.36-4.31-28.97-9.01-.69-1.99-1.76-11.01-1.64-13.39.14-2.76,9.99-36.38,11.83-39.75,6.08-11.11,25.61-24.1,38.34-21.46,5.3,1.1,12.06,10.16,19.15,12.9,10.39,4.02,31.9,4.77,40.61-2.84,2.65-2.31,4.77-13.86,11.97-13.75,3.74.06,20.24,7.42,24.06,9.95,11.63,7.72,21.21,23.42,22.89,37.22.29,2.4.34,21.02-.18,21.99ZM377.22,702.06l-13.98,5.97c3.63-.69,15.31.65,13.98-5.97Z"/>
  <path class="cls-1" d="M634.52,518.77c13.62,13.58,25.64,55.12,1.72,63.44-5.78,2.01-9.76-.31-14.08.71-9.53,2.24-20.34,8.23-30.47,10.59-20.15,4.69-78.38.16-98.43-6.46-1.69-.56-11.19-4.94-11.56-5.46-7.81-10.85,6.28-46.17,13.56-56.52,8.61-12.25,21.13-16.32,34.69-20.7,20.6,25.66,53.74,28.14,70.46-2.43,11.27,3.95,25.49,8.23,34.11,16.82ZM593.23,546.07c-3.41,2.08-15.53-.58-13.99,5.97l13.99-5.97ZM621.22,566.08l-7.37-.54-12.61,6.49c5.75-.57,16.33-.94,19.98-5.95Z"/>
  <path class="cls-1" d="M127.25,308.06l-1.99-3.99c.22,3.36-1.03,4.03-3.89,5.07-18.52,6.74-49.22,5.08-68.88,2.66-8.38-1.03-40.17-6.67-46.02-9.98-13.44-7.59.59-45.89,7.06-56.48,8.25-13.51,23.55-16.52,36.75-22.86,13.18,17.49,32.05,25.92,52.38,13.99,11.42-6.7,10.09-17.18,26.22-13.04,30.71,7.88,48.1,42.53,36.36,71.63-12.49,5.59-26.86,4.25-37.98,13ZM121.22,262.07l-9.99.99-13.99,4.98c6.22-.03,13.62.14,19.6-1.53,3.45-.96,5.28,1.03,4.38-4.44ZM136.99,283.23l-10.03,2.93.95,3.25,10.03-2.93-.95-3.25Z"/>
  <path class="cls-1" d="M164.71,577.53c-4.84,5.91-21.19,4.9-28.03,6.65-1.72.44-1.43,3.71-2.32,3.64-13.88-.95-5.28-.07-10.5,2.23-20.43,9.02-64.62,5.13-87.4,1.75-6.31-.94-31.21-5.65-34.2-9.77-1.4-3.37-2.22-6.99-2.27-10.63-.16-12.44,9.81-40.21,18.2-49.38,9.29-10.16,21.34-10.35,31.99-17.98,10.16,14.37,23.43,22.83,41.92,19.88,11.44-1.83,23.33-17.38,28.16-17.87,12.35-1.26,31.81,11.08,38.63,21.34s14.13,39.97,5.81,50.14ZM138.95,564.95l-18.32,4.68.9,3.52,18.32-4.68-.9-3.52Z"/>
  <path class="cls-1" d="M561.23,412.08c-1.67,5.05-13.06,2.05-11.97,9.98,17.56-6.07,32.87-9.43,47.4,4.58,1.49,1.43,1.41,4.26,2.56,5.97,1.87,2.77,6.98.25,2,9.43,7.56-2.94,9.7,11.71,9.8,17.23s-4.16,17.43-6.79,22.78c-11.71,23.8-42.52,29.7-64.38,16.4-16.91-10.29-12.95-20.13-16.79-37.19-.7-3.1-3.5-5.61-3.8-8.3-1.82-16.82,23.61-44.15,41.96-40.87Z"/>
  <path class="cls-1" d="M91.25,414.07l-2.03,3.97,4.97-4c72.32,26.74,14.87,131.8-42.94,74.99l4.13-4.08-6.12-10.89-1.01,5.99-5.03-17.99-5.97,2,4.02-7-4.01-.97c1.11-29.16,25.8-47.52,54-42Z"/>
  <path class="cls-1" d="M47.25,200.06l9.97,5.01-4-11.02c-5.18-1.4-3.18,1.63-3.98,2.75-3.03,4.22-7.07-12.22-6.02-14.74l-5.97,2c-3.16-39.41,26.58-62.26,63.97-48.99,42.14,14.95,30.62,89.17-17.01,88.61-12.15-.14-32.96-11.06-36.96-23.62Z"/>
  <circle class="cls-1" cx="324.16" cy="594.45" r="45.02"/>
  <path class="cls-1" d="M319.22,280.08l-13.98,7.96c15.49-2.3,25.16-9.1,40.77-1.76,37.26,17.52,25.77,79.61-12,83.67-2.75.3-18.86.38-21.57.07-6.47-.73-18.7-10.15-22.9-15.27-22.69-27.63-6.61-71.68,29.69-74.68Z"/>
  <path class="cls-1" d="M227.23,342.07c-2.43,5.69-14.08,8.13-10.98,16,12.64-2.22,22.44-19.36,34.97-15.99l-9.55,11.84-18.42,10.17c-1.23,7.34,19.82,17,17.81,21.81l-4.99,4.25-13.74-6.21c-2.48,8.24-14.44,6.19-11.09-1.87-15.61-2.97-24.53,3.99-32.02,16.96,4.89,1.43,9.07-13.24,13.98-5.98-7.91,2.84-7.38,8.59-9.92,11.98-11.62,15.54-26.02,28.93-37.04,44.98-1.27.04-5.58-9.9-6.1-11.96-.79-3.14,1.26-5.39,1.1-6.82-.19-1.72-5.11-.23-3.91-4.05,7.91-9.4,14.82-19.91,22.88-29.15,4.95-5.67,26.66-24.22,27.13-29.07.55-5.73-22.84-27.72-28.05-33.95-2.73-3.26-4.67-7.22-7.97-10.07l4.9-6.87,16.99,15.99c.51-6.73-11.01-11.93-2.98-17.96,10.74,7.03,24.99,33.32,36.92,35.17,7.97,1.24,12.37-8.37,20.08-9.2Z"/>
  <path class="cls-1" d="M497.22,498.08l-15,3.99-10.98-2c1.25,6.01,11.57,3.3,9.99,9.97l-10.01.03c.69,1.46,4.19,5.04-.91,3.93-11.64-2.54-73.71-29.09-77.83-27.82l-21.26,65.87-20.14-11.27,18.4-61.48c7.27-10.66,11.59.23,13.07.59,2.17.53,9.38-1.29,12.69.14l-5.98-7.94c9.48-6.82,12.1,1.82,21.98,1.94l-13.98-7.95,8.04-1.17,91.93,33.17Z"/>
  <path class="cls-1" d="M471.25,344.05c10.16-4.62,20.35-29.26,31.93-19.01l-46.02,52.01c0,4.21,27.97,29.11,33.1,34.97,6.01,6.87,18.09,17.52,11.98,26.02l-14.99-11.99c-.12,5.75,6.12,7.78,8.81,12.17.59.95,5.67,13.29,5.16,13.82-4.08.51-6.48-3.42-9.03-5.95-11.6-11.48-22.05-26.33-34.94-37.07-2.38-5.52,8.38-2.58,9.97-3.96l-16.14-16.95c-12.74,2.49-19.88,10.38-30.73,16.01-6.71-7.17,4.16-9.83,6.88-16.05-4.52.13-14.13,12.39-13.58.57.26-5.56,9.14-7.88,9.69-13.7l-8.11-14.87c5.68-1.35,7.4,9.7,11.99,2.95l-11.99-14.95c10.35,2.59,14.41,15.3,26.58,11.58,7.26-2.22,35.62-38.52,40.45-39.6l4.96,4.96-15.97,19.03Z"/>
  <path class="cls-1" d="M285.23,198.07l-9.97,31.99c6.68-3.65,6.7-17.79,10.99-21.99,3.31-3.24,10.38-1.36,9.02-9.99,3.54-.5,1.96,4.5,1.52,6.51-3.7,17.04-17.11,39.28-19.16,55.02-.9,6.93,2.79,11.53.81,18.62-1.15,4.15-5.42,4.44-7.65,8.33-3.82,6.65-5.03,18.03-7.56,25.49-2.78-.05-1.59-9.11-1.54-11.21.1-4.23.41-8.69,1.6-12.74-9.16,1.95-11.1-6.42-17.56-9.51-9.3-4.44-62.44-13.99-64.21-16.8l-.25-9.73,17.98,1.98c-.8-4.14-8.57-2.3-11.5-4.42-2.19-1.58-2.79-6.26.48-7.5l58.54,15.51c2.75.6,6.16,1.18,8.59-.47,2.21-1.5,13.56-40.9,17.59-48.44,2.77-5.17,5.42-11.04,12.31-10.65Z"/>
  <path class="cls-1" d="M373.26,242.04c3.54.5,2.03-4.55,1.52-6.51-1.99-7.54-9.36-20.33-1.56-27.47l17.29,52.18,13.65,1.84,65.06-9.03c-5.92,13.51-25.4,10.51-37.98,13.03-.5,3.43,4.75,2.13,6.95,1.96,6.15-.48,12.38-3.29,19.03-1.97l-1.83,5.87,3.83,2.09-58.52,10.48c-1.59,2.04-10.77,7.32-11.12,7.91-2.78,4.67,7.85,23.81-.32,27.63-3.56-7.61-5.08-19.77-8.47-26.55-2.46-4.92-9.28-8.27-10.76-13.39-1.58-5.45,1.33-8.43.82-12.62-1.91-15.68-17.58-45.91-21.15-64.91-.41-2.18-.68-4.31-.45-6.52l9.03,1.95,14.98,44.02Z"/>
  <path class="cls-1" d="M181.69,615.41c2.54,1.67,11.19-3.21,5.54,6.6,21.26,4.08,41.65,12.52,61.99,21.03l-14.06,20.99c-39.48-10.12-73.81-31.84-101.92-60.99,5.7-5,12.36-.99,16.84-.96.65,0,2.8-7.52,9.74-5.74,5.73,5.16,11.93,9.53,18.15,14.06,2.01,1.46,2.86,4.45,3.71,5.01Z"/>
  <path class="cls-1" d="M278.99,474.3c2.19,20.65,13.78,40.86,20.25,60.82l-5.03,4.84-13-23.9-7.95,5.99-10-29.99c6.37,3.8,11.71,14.71,10.13,21.71l5.83,2.28-11.18-27.57-13.27-.07-62.58,23.6c-5.71.57-1.75-2.61.31-3.7,3.54-1.88,7.97-1.94,10.73-5.27l-3.98-2.97,13.98-6c-11.35-1.08-30.43,14.93-39.32,15.62-2.9.22-5.44-3.88-8.66-3.66-1.51-2.16,35.72-20.11,39.28-21.69,10.95-4.86,36.62-16.76,47.45-16.17,7.32.4,19.02,5.25,27.02,6.13Z"/>
  <path class="cls-1" d="M495.23,604.08l-4,5.96c7.29-2.69,9.77-5.82,17.99-1.96-13.27,16.01-31.81,28.87-49.96,39.01-6.35,3.55-36.84,19.45-41.68,16.61l-10.35-19.63c12.23-1.96,24.36-7.97,35.34-13.67,7.91-4.11,39.6-27.47,42.07-28.02,3.33-.75,7.09,2.06,10.59,1.7Z"/>
  <path class="cls-1" d="M37.15,324.15l-1.89,23.89,4.1-17.96,5.85-.06,4.01,76.03-4.09-.92-1.93,4.9-3.95-1.22-3.03-14.78-4.96,16c-12.91-28.06-11.09-58.21-6.01-88l11.9,2.11Z"/>
  <g>
    <path class="cls-1" d="M611.22,302.07l2,3.92c-1.63,2.11-34,7.78-39,8.03-18.27.91-63.57-3.71-80.54-9.4-9.02-3.03-13.47-3.26-14.44-13.52-1.78-18.86,12.92-50.87,29.49-60.54,2.53-1.48,19.84-8.01,21.54-7.83,13.84,15.88,36.16,28.22,55.67,13.04,5.82-4.53,10.17-16.21,17.76-15.41,21.43,2.26,43.22,27.81,45.53,48.69,3.62,32.7-10.82,29.93-38.02,33.02ZM621.03,283.31l-16.41,4.42.83,3.06,16.41-4.42-.83-3.06Z"/>
    <path class="cls-1" d="M557.23,130.08l-8,7.96,23-1.97-1.01-3.99c2.79-1.96,21.69,9,24.92,12.11,1.7,1.63,11.66,19.07,12.2,21.67,8.37,40.22-31.66,72.88-67.78,49.88-14.43-9.19-15.92-25.48-17.34-41.67l-3.96,9.98c-3.5-25.08,11.99-51,37.98-53.97Z"/>
    <path class="cls-1" d="M625.23,318.05c2.03,22.29,6.2,42.4,3.94,64.95-1.5,14.91-6.28,29.29-9.92,43.7-1.28,5.1-9.98-3.26-10.05-4-1.02-10.67,9.17-28.5,6.02-40.63l-6,21.99-2-13.99-3.96,5.98c2.09-24.99,3.71-49.32-2.03-73.98l24-4.02Z"/>
  </g>
  <g>
    <path class="cls-1" d="M318.76.56c.5.28.39,3.22,1.81,3.55,8.74,1.99,12.31-5.61,25.68,3.93,3,2.14,12.43,13.35,14.31,16.47.59.98-.57,3.54.61,6.07,1.91,4.11,5.58,4.2,6.05,14.52,2.75,59.86-79.02,66.2-86,8.93l-3.97,2.02c-.03-15.63-.11-29.35,11.11-41.89,4.56-5.1,24.58-16.87,30.4-13.62Z"/>
    <path class="cls-1" d="M235.22,86.07l-3.98,2.97c1.5,3.85,12.11,1.17,15.98,1.01,8.58,11.61-27.19,13.45-31.5,18.36-.38.43,1.13,3.14-.27,4.73-2.85,3.25-7.81,1.42-6.2,6.9l3.97,1.98c-8.39-1.23-7.45,3.38-11.21,5.72-19.49,12.11-38.74,23.97-56.75,38.3-3.97-8.9,4.16-16.27,9.97-21.98-2.96,1.56-7,.12-9.05.41-1.71.24.36,7.18-4.96.52l4.01-5.96-3.99-1.98c25.89-24.08,59.23-43.43,93.98-50.99Z"/>
    <path class="cls-1" d="M488.41,118.89c6.06,4.33,18.48,13.32,20.8,20.2,1.39,4.14-4.01,2.39-4.96,1.93-4.49-2.19-7.42-7.3-13.01-6.95l15.99,20.99c.32,1.48-2.1,1.37-2.96.97-11.51-5.23-30.57-21.79-44.99-29.03-12.15-6.1-37.66-12.72-45.93-18.07-2.29-1.48-3.04-5.15-5.03-7.02-7.33-6.91-9.26-4.82-9.09-17.84,30.57,1.42,64.47,17.17,89.18,34.82Z"/>
    <path class="cls-1" d="M363.2,94.07l2.06,7.98,6.97-4.05,1.31,3.55c11.56-3.79,24.27,10.63,28.79,20.41,4.64,10.05,9.64,39.36-.31,45.88-24.17,5.75-48.78,14.64-73.7,16.31-15.34,1.03-81.47-2.53-88.09-16.07-2.76-5.65.15-16.17,1.6-22.42,6.7-28.91,15.64-45.91,46.45-52.92,14.56,15.14,33.77,28.7,54.8,16.17,4.59-2.73,14.98-18.32,20.11-14.83ZM379.22,156.07c-7.91-1.41-15.19,1.6-19.98,7.97,5.08-.48,10.81-1.74,15.59-3.47,3.18-1.15,5.36,1.08,4.39-4.5Z"/>
  </g>
</svg>