<?xml version="1.0" encoding="UTF-8"?>
<svg id="Layer_1" data-name="Layer 1" xmlns="http://www.w3.org/2000/svg" viewBox="0 0 694.21 700.53">
  <defs>
    <style>
      .cls-1 {
        fill: #033095;
      }
    </style>
  </defs>
  <path class="cls-1" d="M264.82,62.56c-3.56,9.2-14.73,2.5-23.03,1.78-3.48-.3-6.18,1.86-8.11,1.97-.93.05-.47-3.2-2.24-3.76-2.62-.82-7.08,1.77-6.61-2,13.23-2.83,26.7.08,39.99,2Z"/>
  <g>
    <path class="cls-1" d="M454.82,366.54c-6.03-30.71-30.46-86.72-42.47-118.53-7.32-19.37-18.01-28.9-15.53-52.49,1.05-10,32.17-87.68,38.29-97.69,7.21-11.78,22.39-19.07,35.68-21.34-1.99-12.47-10.74-25.61-20.87-33.14-4.05-3.01-12.46-5.09-15.18-7.92-1.92-1.99.52-4.12-.99-4.99-5.15-2.95-13.65.49-19.08-2.91-1.81-1.13-.29-4.39-.92-5.1-2.61-2.91-16.22-3.65-20.93-3.87l16.96,6c3.29,2.68-2.23,2.18-3.8,1.85-10.27-2.15-19.98-6.66-31.17-3.88l-.96-5.92c-6.89,2.43-30.27,5.9-33.9,11.9-1.15,1.9,4.61,6.97-6.16,2.11l-2,1.93c1.84,5.18-7.3,7.54-12.01,11.94-7.81,7.31-22.37,20.44-26.51,29.49-17.04,37.24-.11,82.35,39.53,94.55-3.33-28.95-38.48-42.02-33.97-73.99,6.94-.21,13.11,4.61,18.65,8.33,4.55,3.06,15.6,11.17,19.42,14.58,5.52,4.94,8.15,14.15,15.92,15.06,1.47-1.44-7.34-12.11-8.96-14.02-10.89-12.82-25.52-25.69-40.2-33.97l2.15-7.99c32.36,18.87,58.78,42.69,70.93,79.17l22.07-2.19-9.98,8.02,5.99,1.01c-1.71,6.69-13.39,7.56-16.13,11.35-5.22,7.21-4.62,30.96-7.85,40.62l3.96-3.98c2.39,6.23-4.76,9.39-5.32,10.6-1.44,3.09-.91,6.57-2.95,10.1-24.98,43.14-80.12,52.07-125.55,43.47l-5.8,15.16c-.41,4.68,13.12,13.05,6.63,26.67-4.25,8.93-21,3.14-24.11,9.96-1.56,3.4,19.75,20.83.57,32.47-7.05,4.28-16.02.46-18.44,3.53l-89.09,188.89,13.92,8.45-7.83,18.67,15.97,6.02c1.45-4.88,5.63-17.73,10.85-17.9,3.25-.11,44.92,16.67,45.33,19.1l-17.39,36.7-19.68-7.95-8.31,11.63-26.75-7.57c-3.26,3.21,19.67,16.79,21.06,20.05,2.04,4.8-4.6,10.22-2.23,13.97l19,11.18c.34,1.45-11.03,24.32-12.9,26.77-4.07,5.37-9,1.49-4.97,10.02l-47.14-21.95,6.88-18.78-12.74-9.23-10.02,15.95-3-5.98-3.17,4.17-10.73-2.14c-6.39,24.15-16.98,40.93-43.51,26.39-12.54-6.87-16.48-21.01-10.95-33.82l149.55-312.53c.53-3.39-12.3-11.61-11.17-22.89,1.68-16.76,25.15-13.95,26.01-18.23-8.13-11.99-15.66-27.17,3-33.12,12.12-3.87,17.33,3.35,22.77-15.21l-.64-2.63c-48.4-32.2-80.4-97.71-42.81-150.68,11.28-15.89,37.74-34.05,57.67-34.33-7.17,8.09-19.37,10.1-27.86,16.14-22.81,16.21-31.02,35.81-35.68,62.36-.68,3.86.11,2.41,3.54,2.5-.95-12.42,3.79-27.82,11.14-37.87,2.27-3.1,9.75-12.02,12.86-9.14-5.01,4.89-11.58,13.5-11,21,7.13-5.86,8.63-14.26,14.92-21.08,20.82-22.56,56.99-27.81,86.09-22.9l-6.03,4.99,5.56,3.84.45,19.15c-14.74-2.53-29.23-1.73-43.98,0l11.98-4c.41-3.57-6.84-2.14-8.81-1.8-8.6,1.46-20.03,7.67-26.27,13.74-28.69,27.87-13.04,69.82,14.08,92.09,3.89,3.19,21.8,12.62,22.99,15.02,1.43,2.88-.8,3.94-3.98,1.98-3.51-2.16-6.45-7.79-12-6.99,12.75,18.33,39.63,20.79,59.99,26l-3.99,5.96c9.48.4,19.21-.47,28.44-2.53,24.48-5.48,47.74-26.48,49.63-52.39.16-2.13,1.26-7.6-2.06-7.05.08,4.87-1.02,9.58-3,14.02-5.24,11.73-23.21,30.74-37.01,27.95l24.05-20.91,5.01-17.14c-16.76-10-37.49-7.42-45.05-29.92,1.48-1.61,8.26,10.96,11.97,7.01l-20.02-28.99c-5.66,2.85,3.22,12.35,4.03,15.96-4.62,4.42-14.07-19.35-14.91-22.07-9.22-29.94,2.72-84.18,32.25-99.75,5.57-2.94,17.89-8.81,24.18-11.63,14.32-6.44,30.82-10.89,46.47-12.54-.02-3.8-8.38-1.99-10.74-1.72-11.94,1.32-22.68,7.1-34.22,9.78l12.41-7.6c57.85-19.35,126.07,1.57,146.5,62.75,1.74,1.24,9.04-1.51,12.99-1.3,6.79.36,71.13,32.09,80.46,37.72,23.79,14.37,20.33,26.62,26.68,48.99.48,1.71,3.95,1.33,3.97,2.55.32,21.59,13.8,35.83,19.11,56.73,1.05,4.12,2.7,7.12-3.1,6.12-10.15-22.48-14.87-47.29-25.52-69.53-1.97-4.12-2.71-4.86-2.39.38,12.58,32.35,21.1,67.78,34.36,99.68,2.12,5.1,4.61,12.46,9.51,15.47-1.7-11.94-10.02-25.85-11.83-37.18-.33-2.05-1.34-5.37,1.82-4.8.53,4.92,4.97,8.04,6.84,12.17,16.44,36.33,38.47,99.61,49.75,138.25,4.02,13.78,4.14,21.52-2.2,34.92-10.23,21.6-32.21,21.63-51.74,30.26-20.92,9.25-90.58,46.13-109.39,44.3-4.53-.44-11.99-3.65-17.17-4.97-2.55-.65-5.43,1.2-7.97.05-11.78-5.3-21.77-43.91-27.12-56.97s-15.31-28.49-18.93-41.08c-1.73-6.01,5.62,2.11,3.92-3.9-.91-3.24-3.16-8.98-5.96-11.05.66,3.35,1.61,6.62,1.98,10-3.84-1.13-10.17-16.04-1.98-10ZM463.66,39.71c-17.32-17.89-37.29-29.01-62.83-31.15,2.46,9.83,15.79,8.27,23.43,11.55,25.44,10.91,44.99,25.11,57.58,50.42-.36-13.24-9.75-22.11-18.18-30.82ZM224.84,78.53v2.01s25.98,0,25.98,0v-2.01s-25.98,0-25.98,0ZM458.82,94.55c-5.48.02-10.96,4.9-13.71,9.27-6.6,10.49-17.43,38.51-22.64,51.36-7.68,18.95-18.6,38.63-13.64,59.36l3.95-.97c-1.86-2.28-2.12-5.12-2.1-7.93.12-17.44,21.09-64.73,29.2-83.04,5.07-11.44,8.32-20.42,18.93-28.05ZM464.79,140.52c.8-.7,9.38-16.28,10.41-18.61,1.12-2.54,4.88-11.75,3.61-13.37-11.94,4.22-19.52,13.07-18.76,26.27.14,2.44,1.08,8.92,4.74,5.72ZM470.83,158.51c15.94,6.61,33.47,8.15,39.88-11.08,4.87-14.61-1.15-32.44-17.73-32.74-2.47,17.18-12.1,30.39-22.15,43.81ZM548.82,178.55c-4.68-1.03-3.22.6-4.48,2.56-14.19,22.03-22.28,54.98-34.96,78.89-1.26,2.38-3.83,2.73-4.51,4.02-7.41,14.02-29.59,52.46-31.71,66.03-.72,4.58,1.56,8.11,1.68,12.49l4.46-2.58,61.54-127.44,3.84,1.92,12.12-32.94c-.02-8.14-5.31,4.79-6.97,5-3.22.39-2.25-6.34-1.01-7.95ZM191.34,192.04l-2.03,2.03,7.98,7.98,2.03-2.03-7.98-7.98ZM558.82,208.56c-5.16-1.04-3.51,1.07-5.02,3.88-4.45,8.3-10.03,20.92-10.96,30.09l15.98-33.97ZM574.85,230.54c-1.64-4.09,5.25-13.81,0-15.99-1.46,5.77-5.99,19.83-9.09,24.06-1.26,1.71-3.99.22-5.83,1.93-4.76,4.4-9.81,17.4-11.09,24,4.77-1.47,4.69-7.07,6.44-10.54,1.19-2.35,3.5-6.46,3.5-.51l-27.87,61.89-6.07,1.15v-9.98c-.84,9.23-9.83,16.88-12.87,24.13-4.44,10.57-3.09,25.97-11.1,34.86l4.9.94,51.04-95.95c-.78,12.43-15.22,20.81-9.99,33.99l-7.04-.1c-1.32,5.47-1.6,10.89-3.92,16.14-2.64,5.97-10.49,16.52-12.28,20.87-.73,1.78.83,9.39,1,11.96-.92,3.7-5.28,1.16-5.49,1.42-.56.7-5.49,14.89-6.06,16.96-1.04,3.78.96,2.89,3.8,2.79l1.99-6.01-3.97,15.98c5.78,1.13,3.19-1.68,4.51-4.38,13.29-27.32,24.62-55.22,37.13-82.96,8.16-18.09,17.62-35.83,26.34-53.66l-6-.99,3.99-19.98-5.96,7.99ZM584.82,294.54c3.08-3.16,5-6.71,6.02-11,1.44-6.07-5.61,2.07-4.04-4.01,1.71-6.64,5.34-14.48,7.63-20.3,2.63-6.68,14-29.18,14.43-33.84.29-3.12-.67-6.07-4.02-6.85,3.19,12-3.36,10.82-6.5,16.49-6.39,11.56-8.67,29.49-13.43,42.61-2.28,6.3-7.64,13.07-9.68,20.35-.54,1.94-1.66,5.1,1.56,4.54-.14-3.45,2.03-4.26,4.03-5.99-.58,2.75-2.67,7.95-1.01,9.99,3.45-3,4.04-7.82,5.01-11.99ZM606.79,254.53l6.01-17.99c-9.73,3.65-8.46,8.23-9.99,16.97l3.98,1.02ZM544.82,246.56l-7.04-.06-6.94,20.02,13.98-19.97ZM332.82,256.55l-17.99,7.96c6.31.45,14.53-2.27,17.99-7.96ZM210.82,260.55c-5.55-5.18-8.75,9.4-9.99,11.97,5.74,4.36,10.96-11.07,9.99-11.97ZM198.84,284.55c-6.57,1.06-24-11.98-27.47-5.02-4.02,8.05,21.49,15.74,27.46,14.98l.02-9.96ZM482.95,289.55l-9.67,18.15,3.08,1.64,9.67-18.15-3.08-1.64ZM564.8,346.52l14.01-37.98c-4.84,5.97-10.34,18.06-13.37,25.61-.74,1.84-4.79,12.22-.64,12.37ZM182.07,321.35c-4.6-2.4-23.39-9.08-27.25-6.8l-2,7.95,27.99,12.03-2-5.98,8-2.04c.12-1.1-4.43-5-4.74-5.16ZM666.8,400.52c5.66-12.05,2.93-17.88-1.62-29.33-1.78-4.47-4.33-12-8.33-14.65l9.91,27.17.05,16.81ZM146.84,388.53c.11-8.95,6.3-16.39,9.06-23.93.69-1.87,2.63-6.51-1.06-6.06l-12.08,26.5c-20.35,20.27-27.6,49.45-37.58,76.82-10.34,28.36-32.31,59.26-44.34,87.7-1.4,5.37,4.93.96,5.4.38,2.79-3.49,5.11-10.95,6.6-15.4l.63,7.64-51.71,108.29-.92,12.05,19.69-33.27c29.12-58.25,53.01-120.07,86.8-175.4.6-13.36,16.41-25.69,11.5-39.32l5.96,2.02c.29-5.13,3.56-9.44,5.05-14.03.8-2.45-.95-5.17.05-7.85,3.26-8.79,11.75-19.4,12.98-29.13.55-4.37-.2-5.05-2.53-.52-3.94,7.65-6.86,18.01-13.5,23.51ZM578.78,371.69l-9.04,21.55,3.06,1.28,9.04-21.55-3.06-1.28ZM494.8,386.52l4-11.99c-3.95.58-9.57,10.13-4,11.99ZM530.84,410.54c8.02-5.42,12.69-16.66,13.96-25.99-3.38.81-3.29,5.96-5.9,9.13-4.82,5.86-2.96,1.01-6.44,9.01-1.13,2.6-2.74,3.94-1.62,7.85ZM62.82,554.55c-5.48-1.09-3.43,1.39-4.85,4.04-5.2,9.7-10.83,21.14-13.13,31.94,8.38-9.96,13.92-23.76,17.97-35.99ZM150.82,578.51c-2.54-6.73-8.32-3.99-7.98,2.02l7.98-2.02ZM72.85,610.54c3.61-.87,11-16.76,9.96-18-8.66,2.77-10.87,9.44-9.96,18ZM104.82,676.52c-3.65-8,2.83-13.74,1.99-21.98l-7.74,19.03,5.76,2.94ZM16.81,667.8l-3.24,1.21,4.02,10.72,3.24-1.21-4.02-10.72Z"/>
    <path class="cls-1" d="M580.82,296.54c.7-3.31.88-6.77,2.03-9.99h3.97c-1.7,2.72-1.39,5.37-2,7.99-.78.8-3,1.14-4,2Z"/>
    <path class="cls-1" d="M276.81,232.56c-.52,4.01-9.87,1.85-12.48,1.46-6.79-1.01-19.73-3.58-23.51-9.47l35.99,8Z"/>
  </g>
  <path class="cls-1" d="M566.81,258.55l-3.96-2.03-1.01,14.01c-6.78-5.75.21-13.35,1.02-19.98l3.96,8Z"/>
</svg>