<?xml version="1.0" encoding="UTF-8"?>
<svg id="Layer_1" data-name="Layer 1" xmlns="http://www.w3.org/2000/svg" viewBox="0 0 673.99 769.6">
  <defs>
    <style>
      .cls-1 {
        fill: #033095;
      }
    </style>
  </defs>
  <polygon class="cls-1" points="476 766 490.79 762.2 512 766 476 766"/>
  <g>
    <path class="cls-1" d="M549,318c3.43.14,7.53-2.12,10.99,3.01l-3.99,1.98c9.49,6.12,2.5,7.97,2.54,12.22.09,9.95,4.36,23.9,3.07,33.34-.25,1.85-4.28,6.33-3.43.67l-1.1-3.13c-17.18,24.35-24.59,57.64-60.91,56.1l-14.21,195.8c-3.15.83-1.2-2.48-2.59-3.38-1.81-1.17-4.75-.29-5.29-.72-.97-.79,1.97-21.19,1.96-24.83,0-2.4,1.47-9.35-2.04-9.05l-12.03,113.98,24,5.99-23.98-1.97-.02,7.98,46,4.03-7.99,2c1.74,3.13,1.04,8.7,5.97,8.02l.02,1.93c-6.36-.83-4.44,6.39-5.77,7.12-9.09,5.02-37.87-11.71-48.21-2.08l5.98,1.01-5.99,2,3.1,3.96c10.37-7.19,18.96-.22,29.88.14,9.11.3,14.09-3.72,20.16-4s14.02,3.73,20.85,1.89l-1.99,7.92,10,6.05-13.99,2,9.99,4c-6.82,1.01-16.67,3.7-23.21,3.82-13.66.25-31.15-2.76-45.75-1.96-14.62.81-28.22,5.79-43.02,4.18l33.99,6-3.28,3.35-113.72.24c-55.23,0-113.24.52-168,.42-4.43,0-9.36,3.47-13.77.12-1.71-1.3-.82-4.02-1.84-5.43-1.15-1.59-4.47-1.69-5.21-4.01-.83-2.6,1.17-5.55.82-7.7-.3-1.83-2.47-3.32-2.61-5.9-.41-7.37-.69-16.98,7-20.87,10.1,5.52,15.55-1.71,24.59,1.77l2.27-31.75,19.87-1.47-6.14-125.75c-3.26-40.32-9.19-81.42-10.06-121.94-.19-8.95,1.65-16.39,2.06-25.07l-2.97,3.98-2.05-1.99c3.27-6.96-9.38-4.2-14.9-7.14-2.9-1.55-11.24-13.35-16.04-14.86l17.97,25.01c-2.61,2.42-8.8-1.42-10.85-3.15-5.86-4.91-29.83-42.28-36.3-51.7-2.05-2.98-6.71-5.8-7.81-8.19-3.61-7.88-1.45-24.89,3.97-31.99,1.04,5.3,3.86,2.4,4.96,3.26,2.19,1.72,2.45,5.41,5.34,6.46,4.06,1.47,15.46,1.39,16.69-3.67l-15.99-.03c-2.19-1.68,4.63-7.06,5.62-7.82,1.98-1.52,6.09-5.43,7.79-5.82,5.02-1.16,31.3,7.15,34.59,3.64,2.27-6.62-2.41-7.52-2.7-8.03-2.73-4.92-1.24-4.64,2.65-1.95,4.27-26.12-1.34-50.28,16.09-72.96,5.96-7.75,24.4-21.35,27.06-29.17,1.37-4.04-3.65-6.29-3.13-12.65.32-3.85,6.43-14.02,9.13-17.11,28.73-32.79,72.81,4.12,29.87,35.88-11.56,8.55-15.85,2.86-20.95,4.94-2.3.93-33.77,31.95-35.35,34.76-9.88,17.57-2.51,46.09-8.69,64.29,19.07.04,38.01,1.53,57.1.12,3.42-.25,6.61.22,8.89-3.11-14.3-8.27-30.01-1.17-45.07-2.92-3-.35-6.18-.4-6.92-4.07h48c-3.77-10.36,5.55-27.32,5.2-35.01-.11-2.39-2.89-5.08-3.2-8.16-.72-7.28,6.4-25.45,13.86-27.95,24.56-8.23,24.63,23.25,11.2,35.18-4.49,3.99-12.01,3.21-14.09,5.91-4.13,5.34-2.61,23.04-2.97,30.03h64l-1.99,5.98c5.43.98,6.71-1.06,8.3-5.68l3.68,1.71.13-18.89-9.85-4.4-2.3-59.69c-.23-4.43-5.24-5.99-6.79-9.21-11.43-23.68-4.94-53.92,25.85-51.84,4,.27,5.8-1.57,4.96,4.01-6.46-1.79-14.97-.88-17.98,5.99,4.65-1.4,27.28-2.79,29.98-1.08,11.52,7.31,10.55,42.63-3.96,49.09l-5.02-11.96c-6.96,0-5.51,32.61-5.08,39.04.3,4.43,1.6,8.56,2.1,12.91l6.99-23.98-.87,46.78-7.9,4.44-.25,16.78,70.02-2c1.7-1.7-1.45-25.42-3.79-28.81-1.32-1.92-8.79-1.14-13.29-5.14-10.27-9.14-14.85-34.4,4.37-35.47,11.42-.64,18.26,13.82,19.87,23.37,1.49,8.85-2.95,8.96-3.11,13.03-.23,5.7,10.43,23.36,5.93,33.01h57c5.51,0,1.1-12.22,1.01-15.02-.24-6.98.11-14,.01-20.97h1.96c.85,2.03-1.9,12.17,4.04,10.97-2.71-28.44-28.32-41.29-45.99-60.07-9.03,5.18-15.52-.86-22.99-6.95-14.91-12.15-26.23-29.69-4.86-42.77,12-7.35,22.69-4.48,32.81,4.83,7.33,6.75,20.3,26.56,7.19,32.13l-.17,3.82c25.73,15.18,43.66,43.37,44,74.03l5.97-5.98.89,24.12c4.46,6.41,27.08-3.07,33.12,2.88-7.62,2.51-16.23,1.14-23.9,1.89-2.43.24-10.2,0-10.09,3.1,14.94.45,30.05-.61,45,0ZM487.98,309.99v-11.98h-1.96v11.98h1.96ZM283.99,322.02l-25.99-2,6.93,4.05,19.06-2.05ZM312.01,321.99v2.01s17.98,0,17.98,0v-2.01s-17.98,0-17.98,0ZM347.5,373.34c-7.87,4.55-122.05-2.05-144.25.91l-35.23,6.72c9.64,9.15,10.26,17.71,25.82,12.74l.17-5.72,8.99,4.08,3.79-3.9,4.23,3.8c3.21-2.63,1.58-7.42,6.99-5.97l.02,6.02c8.11.85,10.78-3.77,15.44-5.57,9.77-3.77,59.72-4.62,73.54-4.63,8.17,0,16.42,3.7,25,2.17l-1.99-5.97c38.43-3.67,77.29,2.44,115.99-.03.17-2.94-7.18-3.53-9.23-3.74-19.15-1.97-77.13-7.92-89.26-.9ZM501.99,372.01c-8.26,3.07-16.42,1.33-24.75,2.23-2.06.22-9.39.8-9.23,3.74,12.04.45,22.01-4.03,33.98.01v-5.98ZM285.99,386.02h-11.98v1.96h11.98v-1.96ZM357.99,386.02c-4.9.04-9.85-.4-14.75.22-2.15.27-9.36.76-9.23,3.74,4.9-.04,9.85.4,14.75-.22,2.15-.27,9.36-.76,9.23-3.74ZM189.98,437.99l-.97-21.98-2.88,8.67,3.85,13.31ZM240,416.02c-1.27-.24-26.94-1.32-19.99,3.97,6.18-.86,16.56,3.01,19.99-3.97ZM393.65,432.49c-8.94-3.79-61.88,3.74-76.77,1.6-18.41-2.64-17.66-2.01-36.29-.95-12.32.7-24.89.68-37.29,1.16l-2.89,2.94,1.56,4.66-7.15,2,5.25,33.2c.32,45.84-.06,86.15,5.74,132.08,1.71,13.58,1.5,27.29,4.21,40.81l3.96-15.98,2.04,19.98,3.96-3.98,4.04,19.98c3.44.37,2.2-6.9,2.06-9.06-1.93-29.83-4.67-60.27-5.32-90.26-.34-15.49,6.51-34.53-4.82-47.63l4.04.96c2.48-10.13-4.02-10.6-4.08-11.25-.22-2.36,1.82-5.15,1.72-7.73-.7-17.69-5.08-35.08-3.63-53.02,12.66,1.77,26.82-3.78,39.15-2.15,3.65.48,2.58,3.58,4.16,4.01,5.1,1.4,95.15-2.77,105.54-4.01,10.58-1.27,21.85-7.37,33.15-6.83-7.02-8.26-15.14-3.43-24-3.03l2.03-3.97c-1.99-1.27-16.24.58-18.76-.12-1.48-.41-1.27-3.27-1.6-3.41ZM436.71,449.28c-.87-.46-.67-3.43-1.65-3.25-15.93,5.08-9.94,7.19-13.53,18.5-5.11,16.1-8.22,26.86-9.62,44.36,8.54,2.71,1.34,4.76.63,8.4-.21,1.09-.5,19.94-.4,21.86.17,3.23,4.51,5.9,3.83,6.82-.26.35-3.57-1.43-4.17,2.9-1.07,7.75,3.52,12.34,3.54,14.17.01,1.26-4.5,5.48-5.24,10.08-2.13,13.17-1.2,31.25-2.08,44.88l2-19.99,3.26,2.93c-.13,13.88-1.89,28.18-1.28,42.1.11,2.43-1.53,7.43,1.97,6.97l6-47.98.04,51.99c3.64-.75,3.71-3.93,4.05-6.92,3.96-35.42,4.29-70.37,7.94-106.06,2.35-23.03,8.86-47.02,9.97-70.03.36-7.39-1.88-14.09-.03-20.91-1.89.12-3.49.13-5.24-.79ZM433.98,645.99v-11.98h-1.96v11.98h1.96ZM204,650v42l6-.02-6-41.98ZM419.97,673.98l2.01-13.98c-4.45.58-6.4,12.81-2.01,13.98ZM433.99,699.99l-2.98-11.97c-5.57,2.23-6.34,6.31-7.01,11.97h9.99ZM223.99,724.02c-6.22.13-12.52-.45-18.75.22-2.07.22-9.39.79-9.23,3.74,5.56-.05,11.17.38,16.74-.23,2.32-.25,10.97-.89,11.24-3.73ZM409.99,756.02l-18.91-1.98-13.07,5.94h12.97s19.01-3.96,19.01-3.96Z"/>
    <path class="cls-1" d="M466.65,116.64c-5.67,5.45-9.4,18.54-17.66,23.35l6.02-23.98-4.99,3.99c7.14-18.95,17.85-40.55,29.14-57.84,5.28-8.09,9.28-15,17.86-20.15l1.98,11.98,16.99-13.99c2.13,2.52-26.29,50.67-30.36,56.62-7.47,10.93-11.19,12.53-18.97,20.01Z"/>
    <path class="cls-1" d="M607.34,141.41c-.85,1.07-9.6,4.55-2.38,4.57l21.03-6.98c-27.64,28.02-61.36,48.96-97.99,62.99l13.99-16.99-5.98-1.98c21.09-19.31,44.69-39.23,71.01-50.95,4.2,2.74,3.06,5.9.32,9.35Z"/>
    <path class="cls-1" d="M142,197.98l-21.03-9.99-1.89,4.02c-3.29-.59-46.97-28.04-52.08-32.01-5.8-4.5-12.09-10.61-12.99-17.98,17,5.91-5.97-15.89-3.99-18.01,36.01,17.21,70.87,39.49,91.98,73.98Z"/>
    <path class="cls-1" d="M659.42,254.56c.54.42,2.79,5.2,2.58,5.41l-15.99,4,27.98,6c-30.94,3.62-62.86,16.39-94.39,7.4-2.07-.59-6.06-.46-5.59-3.36l11.98-2-21.98-4.04,18-3.99-2.03-3.97c15.86,1.4,68.26-14.29,79.44-5.45Z"/>
    <path class="cls-1" d="M87.98,268.02l-5.97,3.95,23.97,8.05-19.98,2,3.98,3.96c-18.41-4.11-66.19-5.73-80-16.97-2.38-1.94-2.39-2.08,0-4.06l6-4.91-15.98-10.02c30.18,1.64,59.91,6.68,87.98,18Z"/>
    <path class="cls-1" d="M227.98,136l-18.96-19.87-4.02,3.34c-7.64-6.66-44.4-56.58-40.04-63.48,5.28-8.35,9.75,7.49,13.04,3.99l-8-23.96c5.06-.09,8.06,6.61,10.78,10.2,20.34,26.83,35.96,58.1,47.2,89.78Z"/>
    <path class="cls-1" d="M340.02,108l-4.04-27.99-3.96,13.98c-2.82-22.19-8.88-50.81-6.12-73.08.3-2.41,4.08-11.29,5.09-10.9l6.99,11.98c.67-6.62,2.56-17.36,8-21.99,5.77,35.88,4.69,65.56-1.99,100.99-.55,2.92-.02,6.2-3.97,7.01Z"/>
    <path class="cls-1" d="M477.98,657.99c-3.45.48-1.91-4.56-1.99-6.96-.25-8.14-.63-23.37,5.99-29.03l-4,35.99Z"/>
  </g>
</svg>