<?xml version="1.0" encoding="UTF-8"?>
<svg id="Layer_1" xmlns="http://www.w3.org/2000/svg" version="1.1" viewBox="0 0 796.01 398.72">
  <!-- Generator: Adobe Illustrator 30.0.0, SVG Export Plug-In . SVG Version: 2.1.1 Build 123)  -->
  <defs>
    <style>
      .st0 {
        fill: #033095;
      }
    </style>
  </defs>
  <g>
    <path class="st0" d="M704.76,3.17c4.68,3.69,9.17,9.1,15.27,8.86-4.2,9.9.07,6.55,1.93,9.46,2.24,3.5,3.81,7.84,7.4,10.33,5.28,3.66,16.72-7.78,13.22,1.83l3.23,1.21-.98,9.32,7.21,1.86-2.05,3.95,8.03.03-1.23,6.03,5.24,2.96-6.02,1.02c1.08,4.43,6.23,3.94,9.99,4l-3.98,3.96,6.01.04-2.04,9.99-3.97-2.02v6s11.97-1.98,11.97-1.98l-1.55,7.14,5.61,3.89-4.04,8.95,7.98-3.97c-5.25,6.69,7.92,18.17-1.98,18.01v1.95c12.53-.25,12.04,24.97,10,34.04l3.97-2.03,2,50-4.08-.93,4.1,9.95c-6.08,1.67-3.94,5.67-3.98,10.97l3.96-5.98c-1.43,13.28-3.5,31.92-8.16,44.41-.75,2.01-3.61,1.86-4.4,4.05-2.72,7.55-6.71,20.2-3.42,27.51h-5.99c-2.07-8.93,4.72-18.57,5.89-25.09,1.39-7.76.98-18.74,2.09-26.88l-4.97,1.96c1.75,16.07-5.3,28.8-8.86,43.18-3.93,15.85-5.39,31.88-12.35,47.23-.24.53-4.44,5.53-5.77,5.6.65-5.2-5.38-3.8-8.02-7l7.68-3.26,2.34-8.69-10.01-3.03c1.54,5.1-4.45,15.65-4.13,18.88.11,1.13,3.7.9,4.09,2.46,2.92,11.57-6.04,12.34-10.98,20.66l-1.01-5.99c-6.46,3.65-7.12,8.67-2,13.97l-3.42.34c.26,2.63,1.24,4.22,0,7.03-3.47,7.88-13.2,21.58-20.65,11.58,2.69-11.78,17.98-19.15,14.08-30.93l-5.97,2.03-1.99-6.01-2.04,9.95c12.47-1.87,2.75,7.62-1.01,7.61-1.51,0-3.19-3.84-5.09-4.58-2.63-1.03-5.66,1.97-7.84-1.99,4.2-6.75,10.13-16.8,17.94-13.01-.15-2.6.75-5.79-.86-8.15-1.99-2.92-15.11-.14-1.15-9.85l1.99,5.99.05-13.98,7.96,6-1.96-15.99,3,8,2.97-9.05,6,1.05c1.57-7.42-6.24-6.02-6.01-13.99l8.02-.04c-5.36-7.05-3.17-11.25.04-18.56.54-1.23,3.34-1,3.88-2.87.84-2.9,1.16-17.57,2.1-18.56l9.98,1.14,3.96-6.15-5.96-4.98,8-.03-3.98-2.97c3.21-2.81,4.6-6.45,5.5-10.51,2.18-9.88,5.39-33.85,5.75-43.81.6-16.51-7.96-36.12-9.28-52.69-7.42,2.83-1.28,6.35-.51,10.65.68,3.79-1.46,7.17-4.47,9.31-4.97.13-8.09-24.37-8.48-29.07-.58-6.98,5.54-14.76-4.47-12.99l1.94-17.88-7.03,1.92-2.03-1.93c2.55-7.32-5.16-5.59-2.97-14.01l-4.9.13c-5.97-14.31-28.99-41.37-27.07-56.96.38-3.08,3.31-6.1,3.23-8.15s-7.21-12.99,2.35-9.55L703.05,0c1.32-.14.67,2.33,1.72,3.16ZM745.99,120c.91-2.75-2.77-12.53-3.96-9.98-.91,2.75,2.77,12.53,3.96,9.98ZM749.99,288c-8.16-.91-.75,13.76,4,14l-4-14ZM738.01,339.99l-5.18-5.85-4.81,2.88,9.99,2.97Z"/>
    <path class="st0" d="M654.01,62.01l-5.98-2c-.66,2.94.85,4.19,3.01,5.98h2.96s.01-3.98.01-3.98c1.43,1.11,5.37,1.49,5.85,2.25.6.97-1.52,3.96-.76,5.8,1.94,4.73,9.45,3.97,8.89,10.99l6.02-1.05c-3.27,11.51,7.76,7.86,12.11,13.44,5.79,7.42,8.87,22.04,11.9,30.58-.07-.21-3.72-2.27-3.98-2-1.71,5.37-1.72,6.43,2.99,9.99,1.65-.63,1.33-7.05.99-7.99.61,1.72,3.68,5.42,4.99,10.01,6.06,21.3,9.57,43.74,9,65.99l-4.99-.06-.99,6.05,5.78.13c1.44,7.85-.62,15.53-2.77,22.93-.76,2.6-6.2,11.08-6.75,12.62-6.17,17.07-10.27,33.43-18.29,50.34-6.35-2.55.54-9.16-.54-16.43-.28-1.88-.68-6.07-3.4-5.56-3.22,13.63-14.13,24.3-6.02,37.96-8.47-2.49-21.61,22.56-28,18l3.98-9.98c-7.02,10.34-11.49,4.16-19.99,1.98,3.28-5.8,9.37-10.37,7.99-17.98-9.37,2.36-5.2,17.89-15.98,15.98,5.74-5.67,4.64-14.94,8.24-20.82,2.68-4.37,4.12-4.59,7.74-11.8,5.53-11,11.31-18.31,18.68-29.38,5-7.51-2.38-23.45,11.33-20l-5.98-3.96c12.09,3.22,13.26-15.86,13.96-25.05,1.38-18.29-2.45-35.34-5.98-52.97l-9.97,2.01-2.13-8.89,4.11-3.09c-4.29.24-6.27-4.14-5.97-8.03l3.98.93,1.98-6.92-6.66,2.11c-7.63-5.89-8.59-16.93-12.5-24.02-.81-1.47-3.98-1.91-4.85-3.6-3.09-5.99-12.57-24.57-13.4-29.91-1.29-8.26,6.93-6.21,7.34-6.65,3.12-3.39-4.43-11.52-3.91-11.91l7.15,1.87,1.84-3.88c7.58,4.2,10.18,4.66,17.01,9.99ZM667.99,150.01c.2-3.73.59-8.8-3.96-10-.2,3.73-.59,8.8,3.96,10Z"/>
    <path class="st0" d="M594,116.02l-2.97-2.03c13.89,5.06,24.55,21.32,28.97,35.12l-3.99,1.89c13.55,19.51,13.84,65.25,4.57,86.52-1.02,2.34-5.69,3.2-5.56,8.48-4.57-1.77.62-18.62.96-23.03.17-2.2,1.48-7.45-1.95-6.94-7.04,24.21-3.69,49.2-32.02,57.97l4-5.96-14,7.96c5.88-8.67,8.23-12.32-1-19.95l-8.98,7.96c2.54-4.63,1.45-11.5,3-15.97,4.02-11.67,19.12-22.94,20-38.07l8.97.07,2-32.01-3.95.95c2.79,3.21,2.22,13.14-2.02,15.03-4.78-13.55-5.18-27.98-12.38-40.62-4.53-7.95-16.88-14.62-12.52-25.56,2.71-6.8,9.55-.37,6.89-13.8,8.79-2.18,20.12,15.89,21.98,2Z"/>
    <polygon class="st0" points="740.01 23.98 728.03 28 733.78 23.84 735.01 18.05 740.01 23.98"/>
    <path class="st0" d="M668,156.02l-2.01,7.97h-1.95s-1.97-5-1.97-5c1.77-2.14,3.02-3.61,5.94-2.98Z"/>
  </g>
  <g>
    <path class="st0" d="M162.01,34.01c15.46-12.27,49.88-16.19,69.11-10.11,13.67,4.32,26.14,19.2,39.86,18.24,9.82-.69,18.58-10.58,27.65-14.51,23.09-10.01,49.69-6.76,73.38-.54,7.84,2.06,4.88,2.22,8.46,3.52,8.62,3.14,21.58,3.66,21.56,15.42l5.98-2.03.02,6.05c5.18-3.59,13.78,4.93,16.14,8.92,1.47,2.49-.06,5.09,1,6.87,5.27,8.86,17.11,17.91,22.87,27.2,2.03,3.27,5.03,15.18,6.23,16.72.19.25,2.98-1.41,4.79.05,5.56,4.48,16.6,18.7,2.97,19.2,3.61,4.92,8.21,2.55,12.93,1.09l2.12,1.9c.69.98-1.59,6.4,1.94,10.2,2.31,2.48,4.89-4.09,6.85,8.97l10.16.86-3,7.94-8.97-7.94-8.02,10.93,5.26,4.83,19.87-7.81c3.78-.37,19.35,10.07,20.09,13.94,1.16,6-3.99,5.86-5.03,9.46-2.69,9.35,21.09,6.56,14.53,26.85-2.72,8.41-10.59,11.72-8.95,21.55l-10.81.25,2.17,8.06-19.1,17.94-4.03-6-2.01,9.99,5.96.97c-7.25,13.4-22,24-23.99,39.03l-9.96-7.98,5.97,21.98-4.98-3.98c-1.22.57-9.79,11.48-10.85,13.38-1.87,3.38-.03,6.24-.29,6.43-1.3.97-6.89.47-10.05,3.19-1.17,1.01-.91,2.21-6.78,6.96-43.21,34.91-66.79,51.91-126.06,56.01-16.39,1.13-68.65,1.6-82.27-3.63-4.53-1.74-1.21-8.48-10.67-.37-4.45-14.27-25.66-6.92-34.04-17.96l50.97,12.01,1.02-8.02c-5.09-2.35-3.3,3.79-5.18,3.97-1.99.19-14.13-.91-16.05-1.59-4.14-1.48-1.03-6.21-8.76-2.4l1.98-9.98c-5.31-.81-5.93,4.45-6.08,7.93l-29.93-9.96,2.02-3.96c-11.85,2.13-12.32-11.03-22-7.03l9.8,5.19c1.15,1.31-.16,14.33-5.8,11.81l.07-7.03c-3.66-2.87-9.08,1.06-12.17-.05-2.25-.81-14.03-14.87-14.27-18.4-4.9-2.33-10.34,1.13-12.63-.3-21.5-21.11-40.57-43.82-56.99-69.23l-3,5.01-29-35c6.06-2.76,12.67,11.82,19.98,10.02-4.41-4.47-6.94-10.27-10.97-15.03-4.71-5.57-28.86-26.75-29.95-29.86-.93-2.66,1.58-6.06,1.05-8.85l-4.14-2.22c6.99-24.08,22.9-25.35,39.78-40.28,28.57-25.27,47.89-58.89,68.89-90.08,7.58-5.04,2.87-1.19,7.33,1.31-2.6-9.93,15.48-9.46,18.01-15l-7.99-4.97,19.01-12.01-3.01,7.97c6.59-1.47,15.43-6.17,9.98-13.97,3.39-.7,6.5-1.79,10.02-2.01-1.35,1.07-7.9,6.16-5.99,7.99l11.97-6.02c.61-3.19-3.98-2.1-5.98-1.97ZM284,70.03c-7.98-2.25-9.88,5.94-16.68,5.9-22.21-.1-38.25-21.46-62.31-21.5-10.81-.01-28.02,6.68-37.72,11.85-7,3.74-17.6,8.68-17.3,17.74l-5.78-1.97-7.83,8.28,1.65,3.64c-6.2-1.11-12.96,9.91-16.18,14.98-13,20.49-36,44.79-53.85,66.03-1.89,2.25-4.85,3.25-3.98,7,9.5-4.12,19.39-7.68,28.7-12.28,14.68-7.26,39.23-26.15,51.91-30.27,5.93-1.93,16.4-1.29,23.35-5.47l-3.99-1.99,3-3.94c1.43,1.62,2.65,3.26,5.11,3.07,7.96-.59,22.15-9.44,31.87-9.14l-9.97-3.95,30.96-6.05-12.97,4.05c-.51,3.3,7.43,2.37,9.12,2.11,7.76-1.19,5.93-5.57,8.27-6.18,8.12-2.13,22.32,1.86,30.04,1.51,3.16-.14,5.35-3.47,9.46-3.58,32.08-.86,61.17,1.09,91.07,13.15,42.12,16.99,80.27,52.04,126.02,60.96,1.04-6.63-5.77-2.77-11.11-5.87-8.97-5.23-20.3-24.18-27.81-32.24-3.53-3.78-17.81-13.34-18.57-14.25-1.34-1.59-1.28-10.6-2.6-11.56-.22-.16-2.6,1.88-3.43,1.34-3.27-2.13-5.67-7.39-4.48-11.4l-4.97,9.95c-5.9-1.76-5.24-5.64-8.14-9.87-1.9-2.78-6.57-.26-3.71-8.2-11.08-6.58-20.14-20.88-30.73-29.93-5.31-4.54-9.95-1.56-10.35-1.95-.28-.27-.48-5.29-1.58-7.45-3.83-7.54-25.64-9.71-33.41-8.44-14.52,2.38-25.63,15.58-38.62,19.38-2.16.63-4.26.73-6.47.49l3.98-3.96ZM360,152.03c-32.93-15.65-66.96-17.74-103.08-16.12-26.18,1.17-53.88,4.12-76.93,17.1.14,4.21,76.74,13.19,83.05,13.16,16.38-.09,34.95-5.04,51.72-4.41l45.24-9.72ZM222,166.02c-3.81-.29-8.77-.55-9.99,3.97h9.99s0-3.97,0-3.97ZM248,170.03l-11.97-2.02v3.99s11.97,0,11.97,0v-1.96ZM281.67,186.38c-13.69,1.84-27.02-.15-40.73-.48-5.04-.12-10,2.25-15.83,2.19-25.11-.29-54.38-9.52-78.14-17.29-22.14,12.32-42.69,28.28-66.96,36.21l66.97,34.93c11.47-3.43,22.03-10.77,33.07-14.88,22.69-8.44,36.12-10.97,60.41-6.5,8.25,1.52,27.21,9.77,32.42,9.4s17.18-6.7,23.8-8.26c34.63-8.17,64.75,4.53,94.32,21.62l24.02-13.32,1.96,4.01c3.27-1.46.95-4.65,1.63-5.53,6.39-8.33,18.91,3.23,23.38-8.44l-7.96-.98,25.96-13.02c-24.74-6.12-44.6-22.16-66.96-33.27-32.34,13.04-70.07,18.39-105.03,17.23l7.98-3.96c-5.94.4-11.43-2.66-12.99,4.01l-1.34-3.66ZM502.51,178.39l-2.43,8.18,5.5,1.64,2.43-8.18-5.5-1.64ZM524,196.02c-3.78-.64-6.63,2.34-5.98,5.98h5.98s0-5.98,0-5.98ZM508,200.02h-5.98s0,5.99,0,5.99l5.98-2.02v-3.97ZM492.02,220c5.11.82,10.32-2.66,9.97-7.99-2.41,1.55-4.58,3.26-6.99,4.86-.85.56-4.62-2.7-2.98,3.13ZM474.01,232.03c-2.71-2.23-52.85,22.49-59.01,27.97l-1.01-7.98,8.04-.03c-6.65-23.17-12.39,9.26-14.52,11.53-3.06,3.26-31.82,17.42-37.56,19.47-1.95.7-4.78-.82-5.99-.03-2.07,1.34.15,4.43-.27,4.77-8.25,6.69-64.03,17.48-76.61,18.35-77.82,5.43-127.44-30.6-193.72-60.42-7.47-3.36-17.54-8.6-25.34-8.66,17.36,19.29,28.88,42.72,44.96,63.04,20.35,25.72,35.97,37.67,65.83,50.25,5.03,2.12,25.71,7.25,26.77,8.16s1.51,8.17,5.44,9.56l1-6,4.98,4.02c7.11-8.09,20.43-.72,30.05-.03,8.21.58,23.26-1.66,29.67,0,2.1.54.44,3.95,2.31,4.05,4.66.95,2.17-3,3.89-3.61,3.16-1.13,12.29-1.42,12.09,3.62,2.61-8.6,17.05-1.05,19.96-10.04,8.77,7.37,5.98,1.01,8.53.14,25.2-8.58,47.7-13.48,70.49-29.2,3.97-2.74,4.35-9.74,12.02-8.96-5.91-2.49-.08-14.07,2.31-15.6.38-.25,4.25,1.76,8.24-.33,7.87-4.12,11.74-17.52,19.44-18.86l38.02-55.17ZM256.03,248.02c-9.27,1.44-12.93-7.82-22-3.99l3.98,3.96h-17.98s1.25-3.76,1.25-3.76l-11.25,1.8,3.98,3.96c-11.53-1.59-20.96,6.15-31.98,8.05l14.62,8.34c54.21,21.51,117.59,17.98,169.36-8.39,2.06-2.99-15.64-8.39-17.71-8.88-2.44-.59-5.81,1.49-8.8.6s-4.1-4.79-8.51-5.67c-12.43-2.47-29.72,1.64-41.48,6.11-1.06.4-13.44,5.9-14.35,6.02-3.4.48-7.57-.56-11.15-.18l2.03-3.97-12.03-.03,2.02-3.97ZM334,376c1.15-1.15-1.66-5.95-2.99-5.95-5.54,0-.03,8.97,2.99,5.95ZM286.01,378.02c-18.11,2.82-1.24,11.56,8,9.97l-10.01-4,2-5.97Z"/>
    <polygon class="st0" points="172 378.03 161.16 379.99 160.03 374.01 172 378.03"/>
    <path class="st0" d="M178.01,375.99c-4.5.73-8.39-1.78-10-5.96,3.57-.22,8.54,2.24,10,5.96Z"/>
    <rect class="st0" x="269.01" y="183.02" width="2.01" height="15.98" transform="translate(78.89 460.94) rotate(-89.97)"/>
  </g>
</svg>