<?xml version="1.0" encoding="UTF-8"?>
<svg id="Layer_1" xmlns="http://www.w3.org/2000/svg" version="1.1" viewBox="0 0 902 855.15">
  <!-- Generator: Adobe Illustrator 30.0.0, SVG Export Plug-In . SVG Version: 2.1.1 Build 123)  -->
  <defs>
    <style>
      .st0 {
        fill: #033095;
      }
    </style>
  </defs>
  <path class="st0" d="M112,410.14c-.91-6.64-2.67-13.01-2.14-19.86-2.25-2.67-38.97,3.82-43.48-2.68-1.33-1.92,1.18-8.53-4.32-4.48l1.94,6.99-7.98-1.98c-1.92,2.41,6.75,13.82-2.01,12.01,1.17-3.98-2.09-9.75-1.53-12.78.71-3.82,13.86-13.38,3.43-16.36,1.46-5.4,1.46-8.82,7.11-10.84,3.68,5.98,5.58,8.83,12.96,5.94,1.03-2.82-7.96-1.67-3.98-5.95,2.31-2.48,28.02-2.64,33.15-2.21,3.22.27,3.89,7.92,5.87,2.21,1.79-5.16,1.39-28.09,2.98-30.03,4.76.64,8.59,4.23,11.95-1-3.6-2.65-4.12-5.18-1.95-8.99h-6.01s-1.98,5.99-1.98,5.99l8.18-41.79,11.8-.23c-1.15-3.56-4.6-6.18-5.24-9.97-2.3-13.56,12.88-49.54,19.49-62.77,2.11-4.22,19.32-29.49,17.73-31.25-35.86,21.72-66.79,53.8-85.96,91.11-5.81,3.72-11.4-7.39-15.98-.12,1.65,2.9,7.17,16.25,7.24,18.07.13,3.11-6.27,6.51-3.29,10.92l-4.02-11.98c-8.89,3,2.97,13.2-5.96,12.02l7.21,6.87c.47,7.13-6.4,12.82-3.23,19.09-3.72,3.28-15.55-17.6-6.04-20.99l-9.95-3c-2.12,5.96,3.2,5.44,3.86,7.47s3.51,14.06,3.72,16c.94,8.81-8.48,11.13,2.41,15.55l-3,4.93-14.99-5.96-3.01,12.03-1.32-5.77-5.68-.25,5.99-2-1.99-5.97,10-.04-9.99-8.99,7.99-1-8.02-8.99,6.01-4.02-3.97-4.95,4.06-1.15c-.79-2.39-2-4.73-1.64-7.37,1.03-7.46,2.08-15.18,9.58-12.47,2.05-1.36-.83-9.47,5.19-10.97l8.78.92-13.94-5.98c4.94-5.8,5.7-14.33,9.52-20.44,2.95-4.72,7.72-6.35,8.04-6.88.37-.6-1.65-3.49-.6-5.53,6.12-11.93,27.89-39.37,37.67-49.47,3.01-3.11,9.19-4.72,12.57-8.64,2.2-2.56,1.22-6.38,2.59-7.09,2.8-1.44,6.93-.38,8.13-1.05.35-.19-2.72-3.13,1.82-6.99,4.24-3.6,25.12-18.15,29.9-20.69,8.37-4.46,22.91-5.68,32.31-6.24l-4-5.96c12.63-3.71,19.98,4.96,25.44-12.04,5.09.84,9.63-3.62,13.74-4.01s7.79,2.24,9.66,2.1c1.57-.12,1.56-3.85,3.22-4.93,5.09-3.32,11.21-2.61,15.93.85v-16s-4.76,2.01-4.76,2.01l-5.21-5,9.54-5.44,3.25-15.62c8.73-7.08,29.47,2.3,34.33-17.8,5.64-23.37-14.7-40.65-35.83-27.84-9.11,5.52-12.58,22.08-17.32,31.7l-8-11.98-3.95,5.97-1.02-10.01-4.97,16.01C209.27,28.38,241.82-1.43,273.88.29l2.09,5.84c.33-2.19-1.81-7.12,2.97-5.95,3.32.81,21.25,9.46,24.03,11.99,28.09,25.57,20.92,76.58-16.83,88.15l-.12,5.8,5.63.36.41,5.61c4.14-.73,8.63-1.22,12.74.12,7.73,2.52,15.29,8.84,20.61,11.46,5.76,2.83,29.2,11.45,30.15,15.7.32,1.41-1.92,4.5-1.59,4.76,15.8-1.89,28.48,2.35,40.01,13.02l-3.98,2.97c3.42-.18,6.64-.25,9.91,1.1,11.47,4.71,51.98,42.86,54.08,54.92-1.72-1.63-10.35-9.55-12-7.98,2.44,7.43,8.6,5.09,11.01,13.97,1.72-.25,1.22-4.65.99-5.99,2.99,2.84,6.21,4.44,7.96,9.02l-5.95,4.96c13.75-6.52,20.13,22.32,4.01,4.02-2.77,14.17,17.18,11.15,20,14.03.21.21-2.02,2.96-1.03,5.82s6.41,7.18,6.35,9.12c-.05,1.83-4.67,4.11-3.09,9.57,1.96,6.78,9.25,5.82,9.8,6.61l2.11,5.74-4.16,2.1c16.05,20.68,20.42,56.03,21.98,82.04,1.46,24.32-3.13,49.42,5,73l3.99,2.01c18.89-1.14,122.95,20.08,130.05,31.95,1.74,2.91.87,6.8.96,10.02l-6.99-11.99-3.97,7.98c-2.12-6.68-5.75-4.35-7.02-5.21-2.46-1.66-1.11-6.78-8-4.76,1.19,8.86,6.51,13.21,6,21.98l-41.99-7.99c2.87,19.42,4.11,39.28,4.01,58.84-.14,26.12-.73,66.8-3.86,92.28-.39,3.2-1.96,2.73-4.19,3.88l.05,5.01c9.32-5.89.08,9.45.24,11.04l49.75,18.95v-165c0-1.9,5.25-11.34,4-12.93-3.52,1.09-7.57-3.94-8-4.07,8.32,1.17-1.71-10.07,7.98-12l3.01,21.98,7.01-5.01c1.01-4.16-5.14-4.22-5.78-5.25-.16-.25,1.59-5.51,1.83-5.69,8.87-6.62,7.45,14.21,5.97,17.98l3.97-2.03c-2.09,14.42-1.19,28.27-.12,42.7l8.2,2.2c4.74,3.21.02,14.7-.14,20.03-.35,11.71,1.71,27.42.26,38.23-.53,3.97-4.31,2.55-4.25,3.87.13,2.7,3.52,5.08,4.19,9.87,1.88,13.46-1.61,31.13-.13,45.13l-5.98-.02c3.46-10.88-5.91-16.48-6.03-27.99-7.84,2.74,2.01,8.47-.05,13.9l-7.91,3.13c-1.4,2.84,7,4.99,9.06,10.9,3.97,11.44-.71,21.33,2.92,32.05-7.95,2.06-2.23-12.3-4.01-13.99h-5.99s-.02,6.02-.02,6.02c-3.99-6.63-18.47-.54-15.86,3.79.57.94,7.54.96,5.86,6.2l-13.98-1.98,4.97,6.01-17-4.04.18-6.99c-9.18-1.6-23.7-11.31-31.24-12.92-1.66-.36-4.93-.81-4.93.94l4.99,9.02c-22.12-4.09-44.32-7.59-66.98-8.04l-2.01,68.01c-4.11-1.56-6.86-3.65-9.94,1,8.17,2.78,7.26,12.03,11.1,14.86,4.44,3.27,15.06,6.18,19.89,12.11,6.23.54-2.79-5.88,4.93-3.96l8.01,43.98-6.01-4.96,6.04,26.97-74.05.96c-5.78,8.32-.04,7.06,6.32,7.81,2.73.32,4.39-3.32,3.71,3.22l-37.15,1.85-1.69-3.62-21.13,1.75.86-4.12c-17.6,8.36-44.98,3.71-65.95,4.05-15.84.26-35.81,4.44-52.07,2.26-4-.54-2.56-4.47-3.81-4.19-12.06,7.74-30.5,2.72-44.02,1.86-6.96-.45-15.11,4.65-18.01-3.83-10.96,7.44-42.75,7.9-56.15,6.15-2.94-.38-5.11-7.36-12.88-4.14v-8.04c-8.23-.58-9.29-.95-7.69,7.72l7.7,4.27c-4.6,1.84-8.31-2.75-11.05-3.1-1.21-.15-12.61,3.7-17.92,3.19-2.44-.23-4.03.59-2.99-3.03,2.05-7.14,9.86-6.77,9.95-13.04h-11.97s3.97,1.98,3.97,1.98l-2.01,8-6.98-9.98c-1.28-.52-2.14,8.12-6.9,5.9l-4.08-7.89,9.99-.03-2.02-7.98-5.93,4-5-5.98c-9.23,7.8-11.52,9.97-3.05,19.96l-12.02-6,1.53-3.66c-1.1-.75-2.53-.07-3.51-.32,4.63-6.58-4.79-17.53-5.98-16l-.34,5.69c-.79,1.11-3.33.03-3.68.31-.05-1.61,2.65-6.54.89-10.09l13.11-1.9-1.98,9.98c7.18,0,6.58-5.2,3.99-9.97,10.17,2.69,19.46,3.63,29.99,2l-7.99,4.97,11.99,1.03c-2.13,4.66-9.61,9.27-3,13.94,5.25-4.11,8.59-4.07,6.99-11.96l8.01-.02-4.03-7.01,149.08-2.38c11.44-.18,22.49-.35,33.88-.67,17.61-.49,38.47,3.42,54.12-3.91l-.03,4.01,8.55-.99-.55-3.03,73.75,2.1,2.11-3.97c5.84,3.55,15.02.74,13.15,9.88l4-1.03-1.14-5.02c4.35-6.56,21.95,3.25,23.11,2.04-1.12-11.36-4.63-20.59-16.94-22.04-18.72-2.19-39.83,1.88-57.96,2.13-86.15,1.17-172.23-1.91-258.08-.07l-1.99-6.03c.33,4.7-15.55,5.95-17.78,5.54-9.94-1.84,4.29-13.75-6.22-13.55-1.82.03-1.09,3.96-2.91,5.06-2.81,1.69-6.09.33-8.69,1.05-1.05.29-2.93,7.34-6.93,1.42-8.23-12.17,10.06-17.27,5.54-29.5l65.99.02v-80.01h-62.01c.89,6.2-1.31,14.96.04,20.63.4,1.68,3.92.52,4.15,4.33.63,10.79.86,29.68-.17,40.05-.31,3.11-1.39,5.92-2.13,8.88l-3.87-1.92c2.43,5.87-5.15,7.04-5.45,8.85-1.48,8.97,6.74,12.82-12.55,9.18-2.11,5.92,3.22,5.41,3.86,7.45,1.51,4.78.26,11.51,4.12,16.52-7.09.61-.99-6.5-9.97-1.96,1.67-5.92-4.28-6.87-5.32-8.49-.43-.67.46-2.5-.58-4.5-.79-1.53-3.43-2.66-4.1-4.07-2.28-4.79,8.12-3.89,9.98-2.98l-5-10-1.01,6.04-9.98-4.02-1.99,12.01,5.96-2.01c6.05,11.95-3.02,24.63-15.7,17.72l-1.27-7.69.99,9.97-28,2c5.99-5.71,1.04-6.17.82-9.32-.44-6.16-1.47-12.99,1.18-18.64l-7.96,2.98,3.96,9c-3.97.09-7.11-1.59-6.02,4l6,1-6.99,6.97c-7.57-4.01-2.48-13.84-5.57-19.43-4.09-7.4-19.68-8.16-15.41-20.52l5.97,5c11.89-5.51-4.09-5.9-6.01-7.87-4.54-4.65-.77-13.62-1.14-19.41-.58-8.97-6.28-24.78,2.57-28.64l-3.39-13.08c2.86-3.23,10.92,16.32,14.98,2l3.03,13.99c8.28-4.08,4.37-14.48,5.97-21.99l-11.97,6c.48-6.12-2.01-8.52-8.02-8.03-.7-7.24,1.8-8.33,7.87-5.98l2.13-7.98-5.98,3.97-3.83-17.7c6.91-1.5,7.91-6.99,10.81-12.33,6.27-.86,4.85.58,5.11,5.82,2.39,2.12,19.21.44,22.88.63,6.29.34,37.39,4.99,38.5-1.33-1.57-9.97-2.86-24.39-1.61-34.2.53-4.15,4.38-8.45,4.08-8.84-.13-.17-3.48.54-3.99-1.33-.58-2.17-.47-9.31-.11-11.84.52-3.65,3.55-2.89,4.07-4.45,1.43-4.32.76-9.04,4.08-13.38l-6.17-4.19,6.13-12.86c-8.08,9.24-8.34-4.89-8.11-10.99,1.57-41.37-1.08-84.97,2.12-126.11.22-2.87-1.5-4.41,2.01-4.9.44,3.18-.33,6.75.01,9.99h3.98s0-10,0-10c-1.3.08-2.71-.16-3.99.01ZM225.99,128.15h-3.98v5.98h3.98v-5.98ZM181.98,156.14l-2.97-11.95-8.99,6.98c-.8,5.98,3,.25,6.53,1.24,1.83.51,4.7,4.63,5.43,3.74ZM232,358.14h74l-2.15-30.76,4.18-2.24-4.07-2.28.07-16.71c4.16-1.75.36,20.64,5.97,13.98l-6.01-71.98-2,7.99c-5.68-2.01-3.86-9.22-3.96-13.99l3.96,3.98v-9.98s-5.96,3.99-5.96,3.99c-5.53-27.04-10.2-56.47-25.08-80-12.96-3.03-24.5,61.07-26.36,71.59-5.63,31.8-8.42,64.33-10.43,95.41-.65,10.08-3.77,20.36-2.15,31.01ZM199.82,357.97l8.34-96.75,2.85-6.06-.88-9.69,15.84-77.33c-1.66-2.1-24.89,21.49-27,23.98-3.64,4.28-16.31,24.69-17.62,25.52-1.76,1.11-4.92.18-5.38.52-.16.12,1.81,2.53,1.4,3.52-.37.89-7.25,4.54-7.39,5.84-.27,2.43,1.75,5.21,1.17,8.73-2.22,13.67-17.15,34.11-18.18,49.87l-3.98,2.12-6.98-4.1c.76,3.8-1.89,7.97-1.84,11.23.12,7.83,5.74,11.83,5.91,17.66.25,8.54-10.01,41.12-6.07,47.11l59.81-2.17ZM336,358.14h62c-.27-25.22-7.06-52.59-14.12-76.88-6.06-20.85-14.4-40.8-25.54-60.46-11.27-19.9-26.3-39.79-45.32-52.68-.18,10.58,3.98,21.44,6.01,31.97,1.2,6.21,3.94,11.54,4.17,12.95.52,3.14-2.69,10.69-1.23,15.1l-5.96-4c-1.9,2.6,8.89,44.56,3.95,51.99-3.15.4-2.5-5.61-2.86-8.03-1.6-10.86-2.02-31.52-5.16-40.8-1.11-3.28-1.54-5.88-5.94-5.15l10,101.98c8.18.7,5.52-13.12,6.01-17.99l4.21,5.91,5.76-1.93,1.94,19.97c-9.6-1.77-7.05,7.19.06,4.04l2.02,24ZM436,236.14c-4.94-6.75-18.57-20.17-25.05-25.95-11.22-10.01-23.67-18.99-36.93-26.05l26,55.99-6.01,1.99c2.45.05,4.26-1.1,6.01,1.56,9.28,14.07,16.6,44.99,20.62,62.83,3.57,15.86,6.88,32,7.67,48.33l2.69,3.31h49c-3.36-23.75-7.47-50.16-16.47-72.53-5.24-13.02-19.29-38.22-27.53-49.47,3.7,1.15,6.29,1.3,9.99-.03v-1.95s-9.97-2.02-9.97-2.02v3.99ZM237.99,210.15c-2.01-2.04-8.03,3.9-5.98,5.98s8.03-3.9,5.98-5.98ZM100,216.16l-3.98-.03-2.02,7.99,3.98.03,2.02-7.99ZM77.99,238.15l-7.98.98c2.16,3.08,4.29,3.48,7.98,3v-3.98ZM75.99,252.13c3.81-3.54-8.01-8.95-7.95-2.99.02,2.06,6.62,4.23,7.95,2.99ZM74,256.16c-2.09-1.62-7.4,3.33-8,5.96l5.78-.24,2.22-5.73ZM51.99,332.13v-5.99s-7.99,2.02-7.99,2.02c0,3.42,6.67,5.29,7.99,3.97ZM323.99,344.13l-3.97-11.98-4.01,9.96,7.98,2.02ZM139,646.14h61v-253l-3-3h-53c-.65,0-.47-11.98-6.96,3.03l2.46,154.61-3.52,1.36,4.07,2.28c-1.49,13,1.81,29.4.13,41.87-.54,3.99-4.35,2.52-4.25,3.86.22,3.06,3.48,4.32,3.57,7.52.21,7.66-5.87,32.91-2.74,38.55l2.24,2.92ZM307.99,390.15l-77.96,2.02-2.04,251.95c7.71-.48,21.21,6.14,27.11,6.23,2.05.03,9.57-11.21,13.89-.21l9-3.97-11.99,13.96,37.99-3.99-7.98-6.02,2.99-3.94,8.02,5.95,1.01-5.98c3.85,1.57.83,5.75,7.97,3.98l5.76-170.83-7.75-3.13c2.27,6.3-1.74,10.62,4,15.96h-9.99s3.9-4.84,3.9-4.84c-8.25-12.63-.68-93.49-3.93-97.14ZM338,401.14c-.5,12.63.36,25.36,0,38,1.76,2.85,3.99,2.76,6.9,3.1,17.54,2.06,37.4-.67,55.11-.09l-.02-52c-19.05,3.82-39.61,2.07-58.73.14-5.55,2.79-3.12,7.51-3.25,10.86ZM430,442.14h49c6.8-5.98,1.3-15.76,1.02-23.02-.21-5.63,1.51-25.71-1.89-28.15l-48.13-.83v52ZM435.46,464.68c-6.24-5.78-26.17-1.23-35.33-1.21-11.78.03-15.69.17-27.11.87-4.76.29-26.11-5.22-27.01-4.19l1.97,11.98c-16.98-4.96-9.52,12.44-12.3,20.7-.94,2.79-12.74,8.44-11.1,18.43.47,2.88,8.25,3.46,7.4,7.85-4.33,3.27-6.43-.28-7.99,7.01l7.99-.99-3.16,5.03-6.82-2,3,16.84c-.19,10.89-7.47,31.92,1,38.09-3.11,4.38-6.07,10.54.08,12.16l-2.08,6.87,7.96-3.98,1.99,5.04-9.95.97,5.97,7.98-4.02-.96-3.95,12.95,3.98-7.98h6.01s-4,33.98-4,33.98c5.91.38,3.32-6.56,11.99-4v8.03c9.63,1.55,21.18-4.83,29.05,2,1.13.37.59-3.61,2.25-4.02,11.1-2.76,30.79-.17,41.68-6.07l1.98,4.11,5.01-2.09-1.99-3.92c.88-.63,16.01,4.35,21.06,3.59,1.26-.19.72-3.09,2.22-3.49,5.05-1.32,36.86,1.78,38.74-.11l1.93-169.95-42.49-2.06c-3.02-.93-1.86-5.49-3.99-7.46ZM560,654.14v-157c0-4.79.02-15.69-4-18.01-2.78-1.61-38.57-6.42-40.01-5,4.43,58.18.48,116.07.03,173.99l43.98,6.02ZM588,506.15v19.98s2.01,0,2.01,0v-19.98s-2.01,0-2.01,0ZM647.96,506.16h-3.95s0,2.96,0,2.96c2.52,2.48,4.21,5.8,7.98,5.01l-4.04-7.97ZM122.01,526.13c3.54,3.81,8.95-8.01,2.99-7.95-2.06.02-4.23,6.62-2.99,7.95ZM647.98,540.14l-.97-7.99-3,4.96,3.97,3.03ZM119.99,584.13v-5.99s-5.99,2.02-5.99,2.02v3.97s5.99,0,5.99,0ZM117.99,588.15h-2.96s-4.99,4.99-4.99,4.99l4.97,4.99,2.98-9.98ZM110.02,620.14c2.54-3.06,14.01,1.5,13.94-3-.09-5.8-18.81-1.74-13.94,3ZM48,646.14v28l3.56-2.52-3.56-25.48ZM330,652.16l-9.99,2v1.95s7.94,2.03,7.94,2.03l2.05-5.98ZM391.99,666.13l-3.3-7.68-14.68-.3c-.8,7.15,13.48,6.72,17.98,7.98ZM63.99,668.13c2.05-2.07-3.97-8.02-5.98-5.98s3.97,8.02,5.98,5.98ZM310,668.12c-2.57-5.41-10.8-5.93-15.99-5.97-1.39,6.74,12.42,4.11,15.99,5.97ZM261,676.14h-29l.95,82.03,73.05-.03v-29c0-.72,10.04-5.38,8.03-10.99l3.95,5.97c4.92-8.46-4.01-11.91.02-19.97-5.78-2.81-5.01,8.75-6.98,7.98-3.99-2.07-.46-5.53-1.52-7.43-.32-.58-3.15-.41-3.51-1.94-.81-3.42,1.24-25.55.03-26.63-11.9,5-13.52-9.71-16.25-11.75-2.29-1.71-15.33,1.97-19.52,2.61-2.12.32-4.15-.83-6.23-.88l-3.01,10.03ZM366.01,666.16h-10.02s-.23,7.76-.23,7.76l-10.9,1.99-2.12-3.76-6.58.17-8.31,80.69c6.96,3.87,9.43,5.64,17.89,5.93,17.98.6,36.57-3.66,54.23-.79l2.03-79.98c-6.46-4.27-15.27,2.9-18.01-4l10-.04c-3.2-8.43-8.24-4.43-13.09-4.94-2.26-.23-4.32-2.38-5.83-2.26-2.31.18-6.66,5.07-11.1,3.2l2.03-3.97ZM58,674.14v32l-8.02-2.98,2.04,7.01,5.98-2.02v50h50l.06-52.87,3.94-6.14-4.11-2.09,1.91-18.7c-2.39-4.14-35.97,6.95-35.84-8.18l-3.67.95-1.48,4.89-10.82-1.86ZM646.03,678.11l1.98-7.02-10,1.06,7.04,2.39.99,3.56ZM480,678.14h-50v73c0,.42-1.36,1.07-1.54,2,.43,5.09,24.68,2.62,30.53,3.02,8.26.57,18.87,2.15,27,3.98,1.98-28.15-2.72-54.86-5.98-82ZM43.99,706.15h-3.98v5.98h3.98v-5.98ZM47.97,728.08l-3.22-5.72-6.46,2.1-.31,9.7-3.97-2.03v6.02s7.98.03,7.98.03c-.47-5.42-.17-9.7,5.97-10.09ZM308,750.12l5,1.98,2.96-2.96-5.94-5-2.02,5.98ZM251.99,766.15h-5.98s.01,7.99.01,7.99l5.96-5.03v-2.96ZM78,770.16c-3.69-.49-5.88-.13-7.98,3.01v2.96s2.95,0,2.95,0l5.03-5.96ZM333.99,782.13c.65-3.64-2.2-6.62-5.98-5.98l-2.01,5.97h7.99ZM97.98,790.13c.31-3.74.56-8.79-3.96-9.99l2,9.99h1.96ZM501.99,788.13c-.03-7.33-5.95-7.33-5.98,0h5.98ZM533.99,790.15h-2.96s-2.99,2.99-2.99,2.99l4.97,4.99.98-7.98ZM495.99,814.16h-9.99s2.02,7.97,2.02,7.97l7.97-7.97ZM303.99,818.15l-20.01,5.97-1.97-3.98-.33,5.67-5.7.35,2.03,7.99c6.03,1.06,5.06-7.05,10.03-9.07,3.57-1.45,15.54,4.02,15.94-6.92ZM267.99,824.15h-5.99s2.02,9.98,2.02,9.98h1.95s2.02-9.98,2.02-9.98ZM419.98,834.18l-9.97-4.03c-3.07,2.91,11,14.35,9.97,4.03ZM529.99,830.15h-5.99s5.01,7.98,5.01,7.98l.98-7.98ZM205.99,834.15c-4.29-4.44-15.99,13.18-8.96,15.97,5.25,2.08,1.72-6.49,3.16-7.89l5.5-.3.29-7.79ZM287.68,840.46l-7.67-2.31,6.01,9.98c3.47.67,2.28-6.62,1.66-7.67Z"/>
  <path class="st0" d="M98,836.14c-6.38,9.07-7.45-1.65-8-2,2.61.86,5.36,1.32,8,2Z"/>
  <path class="st0" d="M90,834.14c-.85-.54-13.61,1.24-2-8,.03,1.04,1.49,7.63,2,8Z"/>
  <path class="st0" d="M40,398.14c2.3,4.75,2.61,5.91,7.99,9.02l-3.95.97c-1.42,5.67-4.91,13.24,1.94,16.01-1.96-5.57,3.91-6.2,4.67-8.46,1.39-4.14-2.83-9.78,4.36-13.52,7.18,17.25.91,37.71.83,54.96-.03,6.6,2.15,12.1,2.23,17.94.12,9.26-1.77,18.19-.09,27.1-4.54-2.8-4.83-2.23-4,2.98.14.87,7.49-4.56,2.56,8.98-2.5,6.86-14.4,20.19,1.43,14.03v15.99s-7.97-1.99-7.97-1.99l.07,38.67-5.09,3.28c-6.31-5.53-.9-13.47-2.79-20.96-.52-2.06-4.31-10.48-5.59-12.99-2.93-5.76-10.94-8.62,3.39-8.01-3.1-7.8,1.92-16.7,1.71-23.1-.17-5.26-7.27-16.93-5.75-24.9l-3.96,2.02c-2.36-16.66-5.04-36.54,1.97-52l-8.02,2.96.05-22.97c5.09,1.47,2.66,4.02,2.29,7.2-.74,6.38,5.27,2.84,5.57-4.34s-4.07-6.46,4.11-13.87c-5.22.08-5.79-6.54-9.97-2.98-2.68-6.91,3.36-7.9,3.83-9.52,1.51-5.13,1.67-12.97,2.16-18.49l5.79,3.29c-.92,6.88-2.63,6.85.2,12.7v-5.99s6,0,6,0l-2.02,5.98h-3.98ZM45.98,506.13l-3.98.03,2.02,7.99,3.98-.03-2.02-7.99Z"/>
  <path class="st0" d="M13.79,768.41c-.22,5.97,5.31,2.78,8.7,4.18,8.5,3.53,6.71,10.25,9.63,16.01.95,1.87,3.45,1.4,4.76,5.23,2.57,7.5-2.09,19.19-10.87,18.32-.03,4.09,5.65.39,7.54,5.21,1.67,4.26-2.18,7.9-4.66,10.88-4.82-3.28-7.19-3.58-12.89-2.13l.46-9.73,3.53-1.24-9.98-8.03,7.98-.99-1.99-5.97,7.98,1.98-2.01-11.98-1.99,7.99-8.76-2.15-1.66,3.59-3.41-1.32c-1.5,3.43-.42,9.31-6.16,7.87,8.21-8.82,1.16-10.99,4.02-19.97l3.25,4.09,12.72-2.13c.83-1.11-7.91-7.37-9.02-7.35-1.96.03-3.4,4.64-6.97,3.35,4.54-6.3,5.69-7.89,6.02-15.97l3.77.26ZM22.01,810.13c5.04.5,6.75-3.19,5.97-7.99l-5.7,2.26-.27,5.73Z"/>
  <path class="st0" d="M524,846.14c1.15,5.35-2.33,4.02-5.93,4.96-10.65,2.77-23.3,2.04-34.06,1.03-.86-1.87,1.77-5.99,2.99-5.99h37Z"/>
  <path class="st0" d="M58,604.14v36l-6.01.96c.67-9.42,2.39-18.88,3.25-28.31.37-4.01-4.47-9.99,2.76-8.65Z"/>
  <path class="st0" d="M44,589.14c-.08-.64-2.31-1.44-2.02-2.98,4.35,1.26,8.1-5.06,8.09,1s-2.03,11.39-.53,17.5l-5.54,15.48c-.92-9.8,1.27-21.49,0-31Z"/>
  <path class="st0" d="M43.7,373.86l-7.7.29,1.99,5.97c-15.18-4.51,5.38-8.62,6.03-15.97,4.33-.57.19,9.4-.32,9.71Z"/>
  <path class="st0" d="M540,850.12l-10.8,1.7-3.18-5.68c4.71,3,11.57-2.89,13.98,3.98Z"/>
  <polygon class="st0" points="57.99 816.15 57.98 819.11 54.89 822.06 51.11 822.05 48.01 819.13 57.99 816.15"/>
  <polygon class="st0" points="37.99 842.15 37.98 845.11 35 848.1 28.01 844.11 28.01 842.16 37.99 842.15"/>
  <polygon class="st0" points="54.02 574.14 52.04 569.14 55 566.18 57.99 571.11 54.02 574.14"/>
  <polygon class="st0" points="45.99 820.15 45.98 826.14 40 824.12 43.03 820.16 45.99 820.15"/>
  <path class="st0" d="M43.98,850.14c-3.97-1.07-4.5-4.27-3.96-8,3.97,1.07,4.5,4.27,3.96,8Z"/>
  <polygon class="st0" points="208 124.16 200.02 130.14 200.01 126.17 208 124.16"/>
  <path class="st0" d="M412,472.12l-25.99-.97c5.98-3.75,21.87-5.92,25.99.97Z"/>
  <path class="st0" d="M335.99,502.15c2.05,2.07-3.97,8.02-5.98,5.98s3.97-8.02,5.98-5.98Z"/>
  <rect class="st0" x="300.04" y="264.12" width="3.38" height="10.45" transform="translate(-63.39 95.35) rotate(-16.27)"/>
  <path class="st0" d="M323.98,304.14c-4.55-1.2-4.16-6.27-3.96-10,4.55,1.2,4.16,6.27,3.96,10Z"/>
  <g>
    <path class="st0" d="M695.65,60.6c1.45,1.23,10.47,21.16,13.47,25.42,13.29,18.85,36.52,37.53,48.53,55.38,6.38,9.49,7.12,21.4,13.35,30.7,6.52-8.21,14.61-19.24,24.21-23.75,21.14-9.93,64.61-12.02,64.82,19.82,8.27-.1,23.13,5.78,31.34,9.59,4.01,1.87,8.82,3.93,10.62,8.36l-26.01,6.03c-2.05,8.44,10.64.42,12,5.96-9.97,2.95-18.6,1.93-27.87,7.16-11.34,6.41-23.89,22.01-26.13,34.89l-5.97-2.05-6.02,12,7.97.98c-3.48,10.19-14.5,23.88-16.7,33.49-1.06,4.66.74,9.22-.22,11.5-.44,1.05-13.07,15.3-14.99,17.11-31.39,29.63-76.32,30.74-116,42l-30.05,43.96-3-3.02c-5.13,4.05-11.92,14.13-18.05,15.96-4.81,1.44-2.15-2.12-2.15-4.05-.02-10.78,4.76-19.61,11.19-27.9l-24.19,16.97c-10.72-.47-18.93,3.33-27.79,9.01l9.98-15.98-20,11.96c2.9-7.68,11.28-13.01,9.98-21.98l-21.97,1.98,3.98-3.96-19.13,3.87-1.22-3.39-3.63-1.48c5.19-6.27,25-7.1,21.97-17.01l8.05-.03c-.6-1.68-1.31-3.66-.68-5.42,2.11-5.87,47.39-24.37,55.67-28.55,16.74-14.73,27.02-34.87,40.98-51.99l-11.07,3.84-3.91-5.84c-4.93,2.41-7.4,9.29-13.98,7.99-3.93-.77-2.15-2.78-1.09-5.02,2.82-5.98,8.81-11.64,9.11-18.78.18-4.27-2.73-5.65-3.01-7.26-.12-.69,10.41-8.7,7.95-10.94-1.7-1.55-8.62,6.42-11.96,1.97l-2.04,14.03-5.98-2.02-4.01,6,2-7.97-14-4c8.8,1.7,5.57-4.46,8.11-8.46,1.7-2.67,7.22-4.11,5.85-9.56-12.75-.24-16.18,1.41-18.94,13.95-7.17-4.52-18.21-6.52-24.94-11.04-6.25-4.2-6.98-11.51-15.26-12.78l1.2-6.12c-3.46.34-6.08-.11-9.14-1.89-1.37-.8-11.79-13.78-12.92-15.61-3.22-5.21-7.81-12.25-7.95-18.51,7.1,3.59,10.73,17.95,19.97,17.01-4.78-4.4-13.24-26.74-12.11-31.76.44-1.95,4.77-.58,4.11-2.23-9.77-11.61-16.12-27.06-17.95-42.09-.94-7.67,7.38,1.69,7.93,1.08,4.35-8.23-7.16-18.23,2.11-21.13l-4.07-16.87c13.04,12.63,23.04,28.66,39.02,37.97,6.11.29,1.38-2.13-.38-3.63-3.58-3.04-7.77-5.4-10.65-9.35-.31-1.51,1.93-1.28,2.95-.96,13.98,4.39,40.2,22.47,56.32,29.69,2.31,1.03,16.01,7.04,16.71,6.27-2.27-13.74-1.68-27.33,2.11-40.87l-4-1.19-.12-2.91c10.76-4.87-1.35-13.73,4.28-22.79l5.71-.24c.4,4.06-.71,8.64.09,12.57.08.38,5.39,7.42,6.98,3.46-2.64-10.22,4.01-17.7,5.88-25.04,2.04-8.01,2.59-18.61,5.09-26.96l7.96,19.98.04-25.98,6.33,28.65c.43,3.95,4.84,1.41,5.3,1.8ZM558.02,132.14c-1.83,8.17,13.91,7.21,13.94,3l-13.94-3ZM731.3,169.59l-2.73,1.2,6.13,13.9,2.73-1.2-6.13-13.9ZM586.43,183.59c3.42,1.7,5.53.24,7.53-2.45l-12.92-7-2.08,4.02c4.22,0,7.04,5.21,7.47,5.42ZM572.2,194.35c-.18.16,1.3,2.77.63,3.78-2.18,3.3-8.53,2.32-4.88,7.04,5.32,6.87,9.32,2.66,14.54,3.4,2.24.32,4.59,5.34,7.54,2.62,13.18-14.53-11.13-22.58-17.83-16.84ZM633.99,214.15c-3.69-.47-5.87-.12-7.97,3.02v2.96s7.97-2.02,7.97-2.02v-3.96ZM667.64,224.57c-1.19-.69-5.35-1.34-5.63.56l6,12.04-3.99,3.95,5.96,5.03c.38-5.27,3.24-18.34-2.34-21.57ZM805.99,252.17c-5.75-2.26-9.24-2.36-11.99,3.95,4.13-.9,13.62,3.16,11.99-3.95ZM800.21,261.86l-.24-3.7-3.21,4.13c-18.71-7.61-15.52,5.33-18.94,7.67-.52.36-8.16-1.73-11.82,2.2l7.98,1.97c1.78,6.27-4.76,2.95-7.15,5.9l1.18,10.11,33.61-16.4,2.37-13.62-3.77,1.73ZM669.49,289.65l-17.01,16.94,2.03,2.04,17.01-16.94-2.03-2.04ZM712.01,318.13h2.96s4.99-4.99,4.99-4.99c-2.83-4.43-3.71-1.38-7.96-.98v5.97ZM696,318.16l-12.01,1.99c-1.57,6.22,4.59,6.78,7.02,11.98,5.76.74-.06-3.87,1.26-8.52.5-1.76,4.61-4.75,3.73-5.46ZM675.99,324.15c-5.35-1.14-11.16,4.82-9.98,9.98l1.97-3.94c3.72-.02,8.77-.75,8.01-6.04ZM627.98,354.14l2-8-5.94,5,3.94,3Z"/>
    <path class="st0" d="M628.06,265.97c7.26,1.39,11.31,3.97,9.92,12.16-5.98.05-3.7-6.74-11.98-4.01l3.98-3.96-6.01-.03,2.04-17.99c6.5.67,1.27,12.76,2.04,13.83Z"/>
    <path class="st0" d="M614.27,249.89l5.72,1.24-14.8,8.96c-4.58-.95-3.64-8.1-5.1-9.03-2.83-1.81-13.7,2.73-12.08-4.92,3.23,2.13,8.82-.1,10.76.47,3,.89,5.77,11.08,11.21,7.52,1.19-.78-.64-9.92,4-9.99l.29,5.75Z"/>
  </g>
</svg>