<?xml version="1.0" encoding="UTF-8"?>
<svg id="Layer_1" xmlns="http://www.w3.org/2000/svg" version="1.1" viewBox="0 0 692.02 644">
  <!-- Generator: Adobe Illustrator 30.0.0, SVG Export Plug-In . SVG Version: 2.1.1 Build 123)  -->
  <defs>
    <style>
      .st0 {
        fill: #033095;
      }
    </style>
  </defs>
  <path class="st0" d="M691.98,302.01c-.65,8.74.78,20.03-.55,28.45-.42,2.63-2.25,10.82-5.42,11.53-2.63-7.55,2.59-15.54,3.04-20.91.09-1.11-3.42-27.39,2.93-19.07Z"/>
  <path class="st0" d="M685.96,445.98c-5.57-3.19-1.8-14.72-1.95-19.97,2.69.04,3.76,9.55,3.8,11.24.08,3.27-1.21,5.71-1.85,8.74Z"/>
  <rect class="st0" x="685.05" y="457.68" width="3.95" height="16.25" transform="translate(-55.35 94.52) rotate(-7.57)"/>
  <path class="st0" d="M685.98,398.01c-4.21,6.66,6.07,14.63-1.97,17.99-.06-5.24,1.96-9.29-3.8-10.89,2.42-3.21-.1-8.57,5.77-7.1Z"/>
  <g>
    <path class="st0" d="M145.99,634c-.36-1.25-.75-4.37,1.33-4.04l6.65-3.95-11.07,3.79-4.21-5.96c-10.72,4.75-27.66,1.87-37.37,4.18-1.53.36-1.31,3.98-2.48,4.05-3.64.23-22.44-5.14-29.97-5.8-6.28-.55-12.6-.17-18.87-.28-.47-2.93,3.48-2.65,5.58-3.37,9.66-3.29,22.99-4.05,30.41-10.59-12.77,2.55-24.25.43-37.13-.17l-2.56.49c-.31,3.44-2.7,6.19-3.68,9.28-1.48,4.71.53,15.65-6.62,14.37,1.24-7.94-1.06-15.53-1.63-22.98-.21-2.74,1.86-6.01,1.58-9.88-.3-4.09-6.51-12.7-3.98-19.12l-7.68,8.89c-.16,7.54,6.46,10.41,6.8,12.96.29,2.21-3.97,7.66-1.12,12.14l-7.99-.95c-3.59-2.47.01-3.39.01-4.05v-73l-3.98,23.02c-1.84,9.23,4.2,24.64-4,30.98.31-12.32-.46-24.75-.1-37.08.27-9.13,7.11-27.84-1.94-31.92l4.14-2.28,1.88-24.7c-2.43-1.84-16.39,1.1-17.99-4l17.99-2.04-7.98-5.95c5.98.65,11.93-6.19,15.91-7.17,4.98-1.22,15.78,3.04,22.06,1.12l-5.99-2c.35-2.71,2.72-3.5,5.09-3.89,20.45-3.44,46.05,1.56,66.9-.11l-18.33-4.56c-3.37-1.58-22.74,2.36-14.72-4.79l79.05,1.36c2.07-6.79-7.42-3.12-7.98-7.97l7.99-.03c-3.88-9.76,1.23-65.34,6.03-69.98,7.87-.75,2.64,11.5,11.96,11.99l-2-5.98c9.24-2.04,14.46-8.02,25.02-8.02h32c3.15,0,11.63,4.2,16.99,1.98.35-2.92-5.24-3.59-7.17-3.8-12.34-1.33-27.49-.6-40.09-.85l-24.72-3.31c29.11,1.43,60.08-2.01,88.97,0,5.86.41,18.94.98,20.01,5.98l4.02-3.99,1.01,3.99c5.5-4.65,10.28-5.31,17.08-2.49l1.97-1.4-5.06-74.09c10.09.49,15.87-10.08,20.22-17.85,5.73,2.68,12.66,1.15,14.77,7.83,12.54-12.34,38.17-3.27,55.02-5.98l-2.03,3.97,46-2-25.98-3.96,43.98-2c-1.69,4.48-10.73.93-14.59,1.93-2.09.54-1.91,4.79-4.63,5.75-1.04.37-20.11,2.3-21.76,2.3h-31l6.71,3.91,69.31-5.91c1.46-27.25-9.17-55.19,0-81.98l1.94,4.58c3.52,5.2,4.43-2.1,6.94-4.71,1.23-1.27,9.62-2.85,3.75-5.92-1.85-.97-6.15.17-6.65-3.94,19.96-4.6,39.78,1.88,60.01,0-2.8-24.91.22-49.09,0-74.02l-50-2.01,5.99-11.96-8.02-.03c-4.9-4.88,19.72-32.09,23.97-37.04,7.21-8.39,18.37-17.54,25.38-25.63,10.97-12.64,19.56-31.16,33.64-41.48,1.56-1.14,4.36-.02,4.67-.33,1.69-1.65,1.86-7.76,5.36-9.51l1.98,7.98,10.99-9.99c.67,10.76-12.1,5.49,1.05,15.98,8.63-.43-4.82-6.36,2-9.97,8,3.71,5.4,12.32,15.99,4.41l2.03,1.39c5.33,4.08,6.53,15.32,9.56,19.58,8.13,11.41,26.41,29.77,33.1,41.9,2.43,4.41,4.02,9.67,4.3,14.71l10-1.99-2.04,3.97c8.66-1.54,9.07,10.8,16.02,15.02l-15.99-6.99c-2.71,2.33,19.37,15.17,6.01,15.97l-1.99-3.98-4.05,22c-12.82-9.06-21.91-22.83-37.95-9.98-1.98,2.2,7.89,1.8,3.96,5.96-.59.63-7.05-3.82-7.98,1.98l8,.02v28l-2.02-4-3.77,3.3c.35,3.61,1.79,28.44,1.17,29.79-.91,1.99-3.53,2.04-4.67,3.57-1.51,2.02-2.4,10.9-6.83,6.02-2.43-2.68-3.86-5.75-7.86-7.67l3.95-4.96c-5.5.06-8.84-12.56-7.86-16.67.77-3.21,11.31-7.96,5.89-15.39l3.97,2.03v-6.01s-5.97,1.99-5.97,1.99c.75-5,2.26-13.85,1.49-18.59-.91-5.57-4.81-4.86-5.4-6.86-2.18-7.3-1.44-17.37,5.02-22.42l3.89-.19c.43,5.32,17.29,2.52,24.02,2.07,2.98-.2,5.78,1.52,4.95-2.98l-50.98-60.98-56.99,65.94,7.71-.27,3.6-7.81c10.04-2.6,8.76,8.37,18.67,4.06l4.08,52.99-6.05,1.04c3.09,16.54,1.09,33.29-.03,50,26.87-.45,53.22-2.58,80,.01.47,3.49-4.54,1.88-6.97,1.98-1.95.08-26.09-1.38-19.01,3.99,11.02.8,23.86-.68,34.63.2,2,.16,9.5.83,9.35,3.79-9.79.85-18.8.99-28.43,2.64-1.97.34-6.03.54-5.55,3.36l55.98.04-20,2,2.03,3.97-58,2.04,13.98,2.97c-5.35,4.26-15.85,4.68-21.97,3,1.28,7.75-3.38,18.55-3.46,25.41-.06,4.89,5.54,14.16,3.46,20.59l3.96-9.98c.3,5.6-.5,11.3.12,16.9.29,2.61,3.02,4.63,3.32,6.42.64,3.92-3.22,17.53-5.43,21.61l8.05,3.06c-3.68,4.8-.18,7.11,3.95,9.97,1.55-26.96,5.3-53.96,12.04-80.01l5.97,2.03,2.04-16,2,11.98c3.37.9.88-3.87,3.18-4.15,2.82-.35,12.06,2.96,15.57,2.09,2.38-.59-.17-4.76,3.2-3.91,6.12,6.59-.35,13.29.06,13.95.14.23,2.78-.24,3.18.46,1.2,2.08-2.08,7.04,6.79,5.59l.02-6.03c1.48,1.14,7.26,3.84,7.59,4.41,1.19,2.07-.49,38.22-1.6,43.59l6.16-1.23c-.26-6.05,2.61-12.87,3.19-18.03.65-5.82-.38-14.43.71-21.7.55-3.67-2.05-5.93,3.93-5.01-.1,3.24-1.77,10.3-1.07,12.98,4.65,17.69,1.66,14.01,1.03,32.08-2.02,58.35-1.64,114.81-3.81,171.98-.19,4.91.59,11.11,1.89,15.91l-6.02-.96-.02,12.97,8.01-3.01,1.01,6.04,2.98-4.01c3.19,7.18-5.56,7.87-4.02,12.98.24.81,3.65.77,4.01,2.35,1.84,8.13-2.67,19.62,3.92,27.75l-5.86,3.91c11.05,4.34,4.2,18.92,5.95,28.99-7.22,1.89-4.3-9.13-6.42-11.57-.8-.92-4.68-.76-6.71-2.28-4.88-3.63-1.67-13.44-10.82.86,2.69,5.62,8.63-.22,10.92,2.89,6.17,8.35-2.85,13.85-.46,21.13.34,1.05,3.02.76,3.39,2.29,2.73,11.16-13.65,8.7-11.92,18.69-4.42-6.15-12-16.53-2.01-18.99l-4.95-9c-10.33,2.64-9.62,28.87-11.03,37.98l-2-9.99c-9.7,4.34-13.74,14.19-20.99,19.99l-1.98-9.95c-7.95,5.76-10.15,5.6-7.02,15.96l-21.97-4.02c3.15-4.75,11.11-5.42,15.98-3.98v-6.01s-7.07.1-7.07.1l-2.87-15.26-13.02-.87.97,3.99c-11.01,7.58-36.12-11-30.01,10.03-5.29.82-3.79-3.89-8.77-6.11-3.17-1.41-5.54-2.57-9.21-1.85l3.98,3.96c-8.95,1.92-9.71,9.21-21.99,6.04l.98,4.01-8.98,1.95,1-7.94c-5.93,8.43-11.31,8.04-20.75,8.76-18.37,1.4-42.79,2.15-61.24,2.07-13.3-.06-26.7-3.91-41.02-.88v-5.96s23.99-.01,23.99-.01l.03-6h-34.01c-1.82,8.13,2.46,7.41,5.99,11.97-6.91,1.51-14.09.79-20.98,1.84-7.72,1.17-25.74,6.06-33.71,4.26-1.7-.38-.82-5.65-4.11-3.93-4.72,4.1-11.5,4.71-7.19,11.84-6.38.3-5.55-3.45-4-7.97-13.9,5.7-21.94,4.02-31.96-7.01,3.86-5.03,10.54-2.56,15.97-3.02l-.13-5.79-15.88-.17,7.98,3.96c-7.83,1.84-13,3.26-19.95-1.98-2.19,5.58-4.63,9.89-2.04,15.98-3.82,2.12-37.22-1.11-45.14-.17-3.88.46-1.72,3.91-5.67,4.17-8.59.55-36.62-3.11-48.22-3.57-4.51-.18-6.25,4.76-7.97-2.43l-2.14,4.19c-5.69-.55-9.42-4.15-14.86-6.17.5,1.75,4.82,5.33,4,5.98l-11.89-2.16-.11-5.8c3.22-.69,5.37,1.01,8,1.98ZM657.99,92.02l-7.99,2.97,3.02,2.99h2.96s2.01-5.96,2.01-5.96ZM527.98,124.01l-9.97,2.02v1.96s9.98,0,9.98,0v-3.98ZM555.97,153.99l-.97-17.98c-3.92,2.39-1.41,4.34-1.34,7.13.06,2.51-.92,10.92,2.31,10.85ZM621.98,140.01c-7.87-1.47-2.45,8.09-1.97,11.97l1.97-11.97ZM549.99,188.02c-7.81-1.45-2.59,12.13-3.98,15.98l3.98-15.98ZM526,238.01l-30.14-1.13-.96,39.17c3.4,4.83,10.66-.5,11.07-.06l2.02,8-6.89-2.12-4.03,4.08-5.06-3.95v11.98c5.36,2.17,4.67-5.82,6.98-5.95,4.84-.27.68,9.51.98,9.94,11.88,1.12,3.97,3.69,9.03,10.01-2.91-6.29,9.16-12.24,9.1-13.09-.16-2.31-3.01-4.15-3.23-5.88-.36-2.85,2.43-7.93,2.59-12.06.37-9.68.63-20.19-1.15-29.78l5.68-3.17,1.96,11.96,4.02-4.01-4.09-3.07,2.12-10.88ZM581.99,236.02l-22,2,2.04,5.97,7.95-1.98-4.09,5.11,2.12,10.87,6.99-17.98,1.29,7.67,7.69,2.3-6.14-5.12,4.14-8.84ZM553.98,257.99c.65-3.64-2.2-6.62-5.98-5.98v5.98s5.98,0,5.98,0ZM513.98,317.99v-2.96s-3.09-2.95-3.09-2.95h-3.78s-3.1,2.93-3.1,2.93l9.98,2.98ZM467.99,323.98c4.18.23,7.5.78,9.96-2.98l-2.95-2.95-7.01,5.93ZM314.01,340c6.11-.54,3.46-17.99.98-17.96-4.87,4.21-.03,12.58-.98,17.96ZM369.98,326.01l-20.67-.1c-2.08.48-2.88,5.31-3.11,7.25-3.09,25.54.66,53.96-2.07,77.95-.48,4.19-17.43,14.02,7.55,13.46l.35,3.41,13.93-6.97-5.94-6.04c-1.05-4.06,5.37-3.76,6.04-6.36,4.28-16.58-13.83-14.09-16.05-19.61,8.48-2.98,5.86-9.4,6.01-16.99l5.96,2.02c-1.78-10.15,9.61-5.15,7.09-12.02l12.92-2.03c1.41-6.03-1.26-2.47-3.29-2.81-3.47-.59-7.18-.94-10.71-1.18l2.01-7.97c-6.48,1.09-6.32-6.5-13.99-4.04l8.79-9.25,4.82-.98.38-7.74ZM403.97,341.99l-4.98-9.95c-5.84,2.8,3.2,8.13,4.98,9.95ZM407.98,348.01l-9.98,2.97,9.98,5.01v-7.98ZM487.99,367.98c-2.4-6.13-8.13-6.62-14-5.97v5.98s14-.01,14-.01ZM396.01,366.01l2.95,11.98c4.81-1.1-.14-11.63-2.95-11.98ZM399.97,384l3.02,9.96c3.26-3.96,7.54-8.32,6.98-13.95-3.31-.82-.77,3.32-3.41,4.03-1.95.53-4.48-.2-6.59-.04ZM251.97,385.99v2.8s24.01,0,24.01,0v-2.8s-24.01,0-24.01,0ZM313.98,386.01c-4.19,3.52-19.12-1.54-17.97,5.99,4.19-3.52,19.12,1.54,17.97-5.99ZM395.98,394.01c-7.8-1.61-8.23,3.17-2.98,7.98l2.98-7.98ZM384.67,405.64c-.77-1.41-.25-9.45-6.68-8.66l2.15,4.11-4.14,12.9,11.97-6.02c.88-3.21-2.8-1.41-3.31-2.33ZM507.98,400.01c-7.33.03-7.33,5.95,0,5.98v-5.98ZM333.99,427.98l-3.91-8.94-134.08.97,2,23.97,5.96-2.99-3.97-4.98,10-.04-9.99-4,10-2-2.03-3.97,47.48-1.54c26.49,1.47,52.23-4.24,78.53,3.51ZM511.98,422.01c-2.01-2.04-8.03,3.9-5.98,5.98s8.03-3.9,5.98-5.98ZM227.98,430.02l-11.98-2.01v5.99s11.98-3.98,11.98-3.98ZM493.98,436.01c-6.35-.4-11.3,6.08-11.97,11.99l11.97-11.99ZM305.17,444.91c-.73-.57-9.78-8.14-9.14-1.91.15,1.5,8.19,4.78,3.96,10.99l16-4.02c1.28-7.88-5.53-1.92-8.81-1.94-1.31-.01-1.2-2.49-2.01-3.12ZM643.97,444c-4.43-4.53-4,9.06-3.82,10.74.38,3.58,1.07,8.72,5.82,7.26,2.14-1.89-1.35-17.34-2-17.99ZM347.75,445.27l-9.97,3.14.96,3.05,9.97-3.14-.96-3.05ZM207.99,454.02c-5.72.57-11.41-.23-9.98,7.97l9.98-7.97ZM273.98,462.01c-5.83,3.31-12.04-2.76-16.69-2.09-1.18.17-1.14,2.93-1.97,3.39-2.37,1.32-5.88-.69-5.32,2.67l12.82-2.04,5.14,6.04c-1.11-6.5,7.58-1.12,6.02-7.98ZM281.98,462.01l-6.02,1.17v10.81s-4.82-3.87-4.82-3.87l-9.14,7.86c5.09-.83,8.97,5.87,13.99,3.16,8.66-4.68,2.7-10.49,2.75-12.13.06-2.21,4.44-3.41,3.25-6.99ZM655.98,469.97l-4,.02.08,16.02,4-.02-.08-16.02ZM199.97,472.03l-4.01,1,3.38,7.05,11.75.08,4.89-5.16-14.78,1.17-1.23-4.12ZM638,481.99c1.22,1.11,7.26-.24,7.85-3.18l-1.88-6.79c-2.61-.04-6.83,9.19-5.97,9.97ZM291.98,474.01c-3.69-.47-5.87-.12-7.97,3.02v2.96s7.97-2.02,7.97-2.02v-3.96ZM271.64,484.49c-.79-.89-8.33-2.76-9.72-1.65l-2.26,8.94-5.66,4.21,13.99-2.01-5.99-5.96,14.04,5.11,5.95-9.11-5.54.99,1.44,2.88-4.91,2.1c-2.01-.36-.16-4.18-1.34-5.5ZM577.99,501.98l-4.99-7.97-3,4.96c2.13,3.1,4.3,3.51,7.99,3.01ZM589.97,517.99c-.95-5.94,1.19-11.28,2.13-16.92.25-1.5,3.19-7.05-1.11-7.03-2.28,0-1.99,4.31-1.22,5.79l-5.79.18,5.99,17.98ZM519.97,514l2-12c-7.31,1.23-9.02,7.81-2,12ZM61.99,509.98c-1.94-6.18-7.2-2.17-11.99-1.96v1.96s11.99,0,11.99,0ZM670,506.01c-1.24,1.33.93,7.93,2.99,7.95,5.96.06.56-11.76-2.99-7.95ZM649.67,512.28c-4.82-2.67-9.71-3.35-9.66,3.68l9.97,6.04-.31-9.72ZM71.99,516.02c-5.64.58-15.41-4.47-20.13-1.15l-1.84,15.13c7.63-3.79,17.73-5.84,21.98-13.98ZM275.99,524.02l-5.98-2.02c-.66,2.94.85,4.19,3.01,5.98h2.96s0-3.96,0-3.96ZM576.1,527.85l.91-3.85-4.95-1.89-.42,3.37-3.64-1.5-.29,7.72-7.73,2.31c6.53,6.48.53,10.18-2.02,16.92,9.92,6.79,8.4,1.39,13.99-4.95,4.1,9.11-2.64,2.9-1.96,10l11.72-1.74,3.25,7.74,4.99-9.99-5.97,1.98c2.94-6.69-1.32-5.99-3.99-9.96l4.17-1.28-1.74-5.87,5.55-3.87c-3.02-4.35-6.71-5.29-11.88-5.16ZM649.99,524.02l-5.98-2.02c-.66,2.94.85,4.19,3.01,5.98h2.96s0-3.96,0-3.96ZM77.98,528.01c-6.92-1.3-7.98,5.79-10.9,7.99-5.09,3.84-12.36,5.4-15.09,11.98,7.51.44,13.11-4.15,18.78-8.23l7.21-11.74ZM605.98,534.02l-7.97-2.02v6l7.97-2.02v-1.96ZM637.98,539.99v-5.99s-5.99,2.02-5.99,2.02v3.97s5.99,0,5.99,0ZM679.99,541.98c-.6-2.63-5.91-7.58-8-5.96l2.22,5.73,5.78.24ZM227.99,545.98c-3.88-7.97-10.36-4.39-16.82-2.15l-1.17,6.16c3.36-2.59,9.66-.11,11-.41.84-.19,2.27-5.55,6.99-3.6ZM667.3,546.67c-1.63-1.84-6.53-4.89-9.3-4.66-.85,7.02,8.74,3.93,8.06,9.91l3.93.05c.28-.24-1.93-4.45-2.69-5.31ZM73.99,567.98c7.29-6.28,10.98-9.67,7.98-19.97l-5,5.98-4.17-4-22.82,2v10.02c7.42.51,13.77.33,19.99-4.01l.03,5.99c-29.69-6.5-19.93,27.49-22.01,46.01,9.43,1.44,13.94-6.68,23.13-7.87,8.25-1.07,15.08,2.46,22.86-.15-.42-4.25-7.47-3.55-9.94-1.96l-2.07-10.01-7.97,5.97-1.98-6.99,5.99-1.01-3.98-5.94c3.71.56,10.35-11.62,7.99-14.04l-8.02-.03ZM93.98,553.99v-5.99s-5.98,5.01-5.98,5.01l5.98.98ZM310,554.01c-3.81,3.54,8.01,8.95,7.95,2.99-.02-2.06-6.62-4.23-7.95-2.99ZM126.81,559.19c-1.42-1.26-.12-4.99-2.83-2.22-2.33,2.4-12.43,12.36-9.97,15.02l9.97.02c-.48-5.42-.17-9.78,6.01-10.06l-.02-1.92c-1.14.11-2.28-.07-3.16-.85ZM264.65,571.19c6.9,5.43,11.56-3.81,5.98-6.84-8.29-4.5-23.09.69-24.69-8.36-12.74,8.62-2.57,8.59,4.52,12.16,1.63.82,1.64,3.84,2.68,3.95,4.51.48,6.53-4.02,9.82-4.18,1.41-.06.8,2.57,1.69,3.27ZM621.75,555.27l-9.97,3.14.96,3.05,9.97-3.14-.96-3.05ZM94.01,562c10.3,3.15,4.23-7.81-2.7-2.11-1.97,1.62-1.79,5.68-3.32,8.08l7.94.09,3.06,9.89,6.99-3.99c.64-3.51-3.37-1.22-5.31-2.6-1.26-.9-7.79-7.64-6.66-9.37ZM597.83,564.17l-7.82-2.17-.04,7.99-7.97-5,4.18,8.82,11.79.18-5.97-7.98,5.96,4-.14-5.82ZM570,573.99l-3-7.98-7,9.98,9.99-2ZM43.97,591.99l2-21.98c-3.41.05-3.74,6.59-3.99,8.98s-1.58,12.5,1.99,13ZM574.1,573.6l-.9,3.86,8.68,2.02.9-3.86-8.68-2.02ZM116,578.01l-10,.98,9.97,5.01.03-5.99ZM174.01,590l3.97-3.03-3-4.96-.97,7.99ZM41.99,594.01v15.97s2.89,0,2.89,0v-15.97s-2.89,0-2.89,0ZM643.99,596.02c-3.68-.49-5.88-.13-7.98,3.01v2.96s5.72-.27,5.72-.27l2.26-5.7ZM101.98,598.01h-5.98v3.98h5.98v-3.98ZM121.99,608.01l-10.98-1.97-15.02,5.94c7.92-2.73,21.19,3.87,26-3.96ZM301.38,608.61c-.64-.7-5.17-2.84-5.37-2.61l.02,3.96c4.63-.63,4.31,4.85,7.94,6.04.31-2.73-.8-5.43-2.59-7.39ZM489.97,616l2-8-5.94,5,3.94,3ZM496.02,617.97c.38.35,9.9-1.28,9.92-2.95l-4.99-7.01c-5.15-.31-7.91,7.24-4.93,9.96ZM249.99,615.98c4.8.78,8.5-.94,7.98-5.98l-7.98,5.98ZM377.97,621.96c-.3-3.2-2.28-2.59-4.18-2.93-3.8-.69-26.8-1.97-27.82-1.02l5.05,7.95.96-5.94,13.01,5.97,2.96-3.98,3.03,5.95,6.98-6ZM429.97,626l2-8-5.94,5,3.94,3ZM439.97,618.05l-3.95,1.24-2.03,6.7h14c-.45-5-6.22-4.05-6.99-4.51-1.7-1.03-.73-3.21-1.03-3.42ZM333.98,620.01l-11.01.5c-4.7,4.95-2,8.28,5.04,7.47l-1.01-3.99,6.98-3.98ZM169.98,624.02h-11.98s0,3.97,0,3.97l11.97-2.01v-1.95ZM243.99,624.02l-7.99.97,4.96,3,3.03-3.97ZM263.98,628.02h-11.98v1.96h11.98v-1.96Z"/>
    <path class="st0" d="M95.4,634.73c.69.46.74,2.27.63,3.25h1.93c-.2-1.49,0-3.11,1.47-3.9,7.05-3.79,27.94-.77,36.55-2.06l-5.13,8.12-42,1.21-4.86-9.33c.92-.86,9.49,1.44,11.4,2.72Z"/>
    <polygon class="st0" points="605.67 284.29 605 291.99 598.01 282 605.67 284.29"/>
    <path class="st0" d="M347.97,638c4.28,6.05-11.86,3.72-13.97,3.98,1.55-5.48,10.04-2.13,13.97-3.98Z"/>
    <polygon class="st0" points="603.98 256.01 598 255.98 602.04 252.71 602.01 238.01 603.98 256.01"/>
    <path class="st0" d="M627.98,632.01c.81,4.58-1.77,8.32-5.97,9.99-2.04-5.31,2.62-5.74,2.74-6.05,1.18-2.99-3.36-4.61,3.23-3.94Z"/>
    <path class="st0" d="M607.98,265.99h-2.96c-3.14-2.11-3.5-4.3-3.01-7.99l5.96,5.03v2.96Z"/>
    <path class="st0" d="M581.98,631.99c-2.01,2.04-8.03-3.9-5.98-5.98s8.03,3.9,5.98,5.98Z"/>
    <path class="st0" d="M555.98,629.99h-3.98s0-7.99,0-7.99c3.98,1.07,4.49,4.26,3.97,7.99Z"/>
    <rect class="st0" x="562" y="628.02" width="11.98" height="1.96"/>
    <g>
      <rect class="st0" x="487.41" y="73.57" width="17.68" height="4.33" transform="translate(91.79 373.09) rotate(-45)"/>
      <path class="st0" d="M513.98,56.01c2.02,1.85-8.38,11.56-9.99,9.97,1.02-2.01,7.15-12.56,9.99-9.97Z"/>
      <g>
        <path class="st0" d="M241.99,138c.01-10.68-5.11-17.93-16-20.03-.65-5.6,5.57-6.93,9.84-8.17l-.92-1.84,3.06-1.99-7.97-3.96,11.99-.04-3.99-5.96c4.69-.62,7.25-3.88,12.43-3.6,11.59.61,12.5,12.04,24.64,1.57l1.91,4.01,4.42-6.04c16.69,1.31,33.04-3.19,49.73-2.11,9.53.61,16.26,6.62,25.6,5.95l7.26-7.78-4.01,15.96,6,.04-1.97,35.97,4.95-4.02,5.05,2.05c-5.42,19.67-5.94,38.74-6.01,58.96-.01,3.27,2.33,6.75,1.97,9.95-.42,3.78-5.6,5.97-1.98,11.06l-10-1.96,1.05,6c-2.36,3.55-6.49-.65-9.06.84-5.56,3.24-.81,14.65-7.96,13.14l-4.05-23.98-4,7.97-2.09-3.83-5.87,1.84c-2.04-16.28,5.5-32.38-1.01-47.99-25.11,21.45-46.78,46.62-70.98,69.02-10.61,9.82-23,17.73-33.05,26.94-23.98,21.97-46.43,45.68-71.06,66.94-1.99.92-9.92,3.01-7.9-1.89l29.97-32.04-2.96-.97-40.04,35.97c-.36-6.16,1.7-9.16-5.64-11.81l-30.33,21.84,13.12-14.85c14.54-3.15,8.82-20.24,21.86-21.21l-4-9.96,5.73-1.79,3.28,5.74c1.75-3.71,5.45-5.6,7.65-8.31,4.7-5.79,3.56-10.64,11.34-14.66l-7.97-1.96c6.65-5.22,11.6-13.06,17.19-18.82,30.28-31.19,66.49-59.38,97.85-90.15,9.25-9.07,18.69-20.02,26.94-30.06h-44ZM301.97,112c.49-3.67.11-5.84-2.98-7.96l-2.96,2.96,5.94,5ZM359.99,112.02l-5.98-2.02v5.99s5.97,0,5.97,0v-3.97ZM337.01,124.02c-4.79,1.24-2.04,7.52,3.96,5.96,4.79-1.24,2.04-7.52-3.96-5.96ZM345.99,134.02c-3.65-.68-6.63,2.19-5.99,5.97h3.97s2.02-5.97,2.02-5.97ZM170.01,264l5.94-5-2.97-2.99-2.97,7.99Z"/>
        <path class="st0" d="M229.98,266.01l-3.87,2.05-6.07,11c-12.89,2.25,3.11-14.65,9.94-13.05Z"/>
        <path class="st0" d="M215.99,282.02c-1.65,4.21-5.43,6.73-9.99,5.97v-2.96s3.98-4.09,3.98-4.09l6.01,1.08Z"/>
      </g>
    </g>
    <polygon class="st0" points="503.99 250.02 500.96 253.98 498 253.99 498.01 248 503.99 250.02"/>
  </g>
</svg>