<?xml version="1.0" encoding="UTF-8"?>
<svg id="Layer_1" xmlns="http://www.w3.org/2000/svg" version="1.1" viewBox="0 0 655.75 984.04">
  <!-- Generator: Adobe Illustrator 30.0.0, SVG Export Plug-In . SVG Version: 2.1.1 Build 123)  -->
  <defs>
    <style>
      .st0 {
        fill: #033095;
      }
    </style>
  </defs>
  <g>
    <path class="st0" d="M411.77,146.02c2.59,2.5,4.82,5.11,7.99,7.01l-5.97,6.99,5.95-4c1.04,2.23,3.66,10.82,4.58,11.57,1.48,1.2,4.8.03,5.43.48.3.22-3.85,3.47,1.99,5.17-2.01,8.03,6.56,13.28,4.9,25.03-.29,2.05-3.48,4.96-2.86,5.74.54.68,4.85-1.54,3.98,1.99l-7.98,4,7.98,1.01-2.97,4.56-3-1.57c.71,4.67-.26,5.32-4.04,7.04l.07,2.96,3.95.94-3.94,8.11,7.93,4.95-6.02,1.05c1.82,9.21,1.53,24.02-3.99,32.02l3.92,3.82c-7.8,10.38-10.2,22.15-19.07,32.97-7.06,8.6-29.38,25.53-39.88,28.13-1.1.27-3.25.58-2.94-.95,3.04-9.61,14.51-6.86,15.97-15.01-2.8,3.76-10.74,1.89-11.97,2.88-2.56,2.05-4.77,13.37-11.25,14.6-1.92.37-4.57-1.58-7.22-1.02-1.99.42-3.92,3-6.67,3.5-10.75,1.96-20.34-5.88-30.85-5.99l6.47-7.29c5.99-1.65,7.87,8.2,13.5-.67l-35.98-10.05c3.58-8.56,12.29.28,17.99-2.97l-19.98-8.99,15.11-3.96-1.13-6.07-3.97,2.02c-5.96-8.41,22.54-3.82,24.91-3.97,14.65-.88,15.54-5.87,24.32-11.71,9.76-6.49,32.92-20.91,36.03-32.3,1.03-3.75-4.34-7.58-1.32-12.6-3.85-1.29-3.7-6.6-5.29-7.49-2.84-1.59-9.22-.84-12.77-2.99-.89-.54-1.98-12.29-10.95-10.66-1.05.19-.77,7.04-3.97,1.71-3.56-5.95,4.93-3.9,5.01-7.99l-9.72-.31c.11-8.72-9.06-5.38-4.3-13.71-7.09,2.96-10.55-5.82-7.99-11.99l-10,1.97-.97-5.92-19.14,4.94c.2,11.55-6.85,8.53-10.02,12.36-1.03,1.25-9.28,16.8-10.28,19.22-4.69,11.33-4.64,22.3-8.6,33.41-6.99,7.9-3.18-16.25-6.97-15.98-3.3,15.8,3.57,25.46,7.96,39.99l-8-13.99-3.75,2.95c5.8,14.92,9.32,30.93,23.76,40.05l-7.97-1.02-3.02,7.97c-9.12-5.34-12-17.73-16.99-24.56-1.74-2.38-4.89-.56-6.08-2.7-1.25-2.25-1.22-7.78-1.95-10.69-3.43-.54-2.14,4.77-1.81,6.8,1.06,6.52,4.78,11.02,5.81,17.19-11.12-8.6-8.78-27.39-12.07-38.56-.53-1.8-3.56-.65-4.06-4.29-1.47-10.75,2.66-20.75,4.13-31.13l-9.86,27.11-2.1,20.87.12-36.67c6.35-46.9,43.5-79.54,89.07-87.11,7.61-1.26,19.86,3.63,20.83-6.2l7.96,3.97c-.87-4.22-7.66.13-.99-5.95l4.98,3.98.03-6.03,11.99,4c.65-.44-11.05-10.47,7.06-6.16l.95,8.19c6.43-.14,7.9-2.29,8.98-8,2.5,5.41,9.95,7.24,9.03,13.99,5.76,1.73,3.52-4.79,7.94-6-.34,3.5,2.24,4.27,4.04,6l.02-8,5.7,2.26.27,5.73h-5.99ZM301.78,176l-3.99-7.97-4.02,9.97,8.01-2Z"/>
    <path class="st0" d="M557.75,208.02l.03-3.99c4.56,1.6,4.17,11.03,6.97,2l16.98,16.99-3.97,4.98,6.01.04-8.02,13c-.43.94,7.66,1.05,3.99,4.99-.7.76-2.97-3.3-3.93-.65-3.18,8.83-3.31,3.47-9.87,7.82-8.06,5.35-9.01,7.19-16.8,9.48-6.07,1.78-2.85,6.97-8.36-2.62-7.85,8.53-11.29-2.19-12.05-2.1-2.74.32-4.43,3.28-5.95,3.3-4.89.06-20.47-8.47-23.63-13.73-8.94-14.87-.48-16.84-3.36-31.5,8.72,4.88,13.85-7.53,21.93-9.13,6.64-1.31,8.7,5.17,13.13-4.86,9.51,6.83,18.04-.32,26.9,5.98Z"/>
    <path class="st0" d="M344.06,9.66c7.95-3.28,12.53,4.48,17.69,9.37-9.02,2.74-2.14,7.73,3.99,5l-2,5.98,6.02.02c2.42,5.07-3.91,3.28-4.14,5.24-.59,4.98,3.08,13.89-1.65,20.54l5.74,3.22c-7.6,3.78-8.11,3.16-9.77,12.16,3.21,1.53,4.68-.03,3.82,4.83l-6.04.02,1.64,3.63c-13.25,12.23-21.48,9.07-37.44,6.15,1.25-8.08-3.61-4.71-5.6-6.2s-1.46-5.72-2.68-8.09c-.8-1.56-3.88-1.52-3.9-2.68-.04-2.05,2.1-5.01,2.07-7.96-.14-13.58-4.63-23.68.93-36.85,1.45-3.43,6.52-13.08,9.08-15.11,3.13-2.48,5.73-.92,6.96-1.41,1.09-.43.87-2.72,1.31-2.89,2.3-.89,5.87,4.02,8.67-4.64l5.3,9.66Z"/>
    <path class="st0" d="M189.41,64.27c.76.46,2.3,6.04,5.28,7.98,4.49,2.93,1.42-2.71,9.98,5.8,13,12.94,33.95,30.28,17.93,49.79-10.56,12.86-22.8,10.32-34.74,1.04-3.82-2.97-13.57-12.99-13.89-15.94l-10.1-1.04-4.27-15.75-5.85-.16,2.01-5.2-3.98-2.8,7.98-2c.86-3.28-3.45-.92-4.04-3.26-1.35-5.32.3-11.52,5.06-14.71l1.98,3.99,8.12-10.1c3.46,5.36,17.53,1.75,18.53,2.36Z"/>
    <path class="st0" d="M515.75,70.03c-2.48,6.32,1.45,13.32.99,18.99-1.05,12.94-19.93,27.69-29.46,34.95-2.34,1.78-2.82,5.27-5.4,6.85-2.23,1.36-15.02,1.02-17.6-.32-.84-.44-13.54-12.02-13.91-12.89-1.49-3.5.69-17.31,2.6-21.38,2.76-5.89,24.28-27.02,30.16-30.02.7-.36,12.13-3.23,12.79-3.2,9.34.3,11.76,9.91,19.82,7.03Z"/>
    <path class="st0" d="M167.2,251.44c-6.38,4.86-32.96,7.16-41.03,5.19-9.12-2.23-14.93-9.22-23.57-12.48l1.18-6.11-5.97-.07,5.01-20.01c6.35-.51,8.26-6.16,13.45-7.4,4.04-.96,32.15-1.99,36.45-1.37,15.86,2.29,27.65,14.24,22.14,30.96-.4,1.2-6.92,10.72-7.67,11.3Z"/>
  </g>
  <g>
    <path class="st0" d="M219.76,372.04c-2.42,7.48-9.42,3.77-12.71,4.57-3.7.9-4.64,6.38-9.29,5.39,4.92-9.93,12.69-8.94,22-9.96Z"/>
    <path class="st0" d="M497.75,394.03c.1,4.38,1.1,10.45-3.97,11.99v-11.99s3.97,0,3.97,0Z"/>
    <g>
      <path class="st0" d="M647.76,968.01c-6.45.43-12.06.89-15.95-4.99,5.91-8.65,16.57-5.73,15.95,4.99Z"/>
      <path class="st0" d="M39.77,925.99c-5.71-5.9,18.2-5.27,17.95-.97-2.77,6.18-14.88,4.14-17.95.97Z"/>
      <path class="st0" d="M47.75,936.03c1.39,8.64-11.5.64-15.98,1.97l15.98-1.97Z"/>
      <path class="st0" d="M655.75,960.01c-3.64.65-6.62-2.2-5.98-5.98l5.97-2.01v7.99Z"/>
      <path class="st0" d="M87.76,972l-11.99,2c1.21-3.17,11.11-8.35,11.99-2Z"/>
      <rect class="st0" x="75.76" y="962.04" width="8.01" height="4.01" transform="translate(-6.59 .57) rotate(-.39)"/>
    </g>
    <g>
      <path class="st0" d="M241.77,649.02c-.03,1.61-4.53,4.93,1.98,7,8-28.77.51-59.36,6.16-89.02l-4.12-18.97,1.77,16.77-7.77,27.21v-25.98s2,9.98,2,9.98c3.35.53,2.18-4.87,2.06-7.05-.53-9.22-1.31-18.78-1.97-28.05-.25-3.42.2-6.61-3.12-8.88l-19.02,53.98-3.95-5.97c-.66,13.61-7.06,21.29-12.79,32.22-7.67,14.62-12.64,29.93-30.07,35.94-3.24,1.12-11.58,3.31-14.57,3.24-4.49-.1-25.58-8.75-28.36-12.63-3.24-4.53-8.83-23.91-7.8-29.18,1.35-6.89,23.18-26.9-.41-15.59-.76-8.99,7.61-16.77,8.04-24.97.15-2.82.2-3.78-3.04-3.04-1.64.37-.26,7.24-4.99,3.05,6.46-22.97,18.02-44.68,24.69-67.49,6.23-21.31,11.11-44.54,19.76-66.06,6.94-17.28,16.6-35.12,25.56-51.46l3.99,1.01-4.02,8.96c4.58,4.19,42.26-31.36,50.54-34.44,6.99-2.61,14.48-.7,21.44-3.57h-11.98c4.43-9.18,12.63-1.01,17.43-.35,4,.55,20.56.61,25.62.48,13.39-.34,24.65-9.02,39.96-7.43,18.57,1.93,28.79-1.01,45.98-.84,17.56.17,53.61,10.68,70.48,17.28,2.26.88,7.35-2.09,6.52,4.89l-5.97-1.01c6.6,8,24.24,10.87,21.99,23.03h5.99s.02-6.03.02-6.03c5.28.82,11.56,10.47,11.94,15.11.41,4.97-5.68,12.08,2.02,14.91l4.01-6,3.02,11.99,1.01-5.99c8.55,4.92-3.15,10.35,7.98,15.98l-11.99,1.01c6.87,8.94,10.48,20.24,15.42,30.5,1.02,2.12,3.49,2.02,4.45,4.02,1.87,3.88,1.81,12.99,6.03,19.33,1.2,1.8,4.48-1.32,6.09,2.18-11.25,5.34,1.26,3.35,1.78,6.12l-1.66,17.71c8.62,3.09,13.09,16.16,16.85,25.19,6,14.42,24.92,64.05,25.18,76.98.27,12.89-10.62,22-2.16,32.98-9.97-4.86-13.87,6.51-21.05,11.97-8.84,6.73-30.66,15.17-39.68,6.25-2.35-2.32-.66-5.85-2.21-8.2-1.24-1.89-8.51-3.3-12.09-5.97-27.57-20.59-39.36-72.12-50.91-103.09-8.66-23.21-7.47,6.86-8.24,11.91-2.35,15.3-2.76,9.47-1.96,26.45.38,8.04-5.78,20.41,6.14,22.74l-5.95,8.97,9.94,3.01c.86,3.55-3.42,1.31-3.99,2-.68.81,2.95,3.34,3.51,5.49,3.88,15.02-1.99,30.1-2.47,44.3-.1,2.87,2.57,8.69,2.65,13.32.09,4.98-2.56,9.77-1.67,14.87l5.98,1.01-4.07,2.11c3.1,15.1-3.66,37.04,1.88,51.95,1.41,3.81,2.3,2.78,5.21,4.92l-.97-8.82,7.93-.17-3.95,4.97,4.13,1.24c-7.66,20.1,2.03,40.3,5.27,60.38,2.89,17.92,6.41,37.79,8.33,55.67,1.54,14.27,2.36,26.3.4,40.59,4.42,2.95,6.78-.92,10.03-.9,16.69.1,33.11,2.08,50.95.07,2.08-.23,4.45-2.58,6.19-2.61,3.88-.06,9.75,5.05,19.77,3.7,4.58-.62,5-6.91,8.9-8.1l.04,9.99c5.93-1.28,5.61-7.81,11.99-5.98l-2.03,3.97c10.82-.59,35.74-3.26,44.73,2.3,3.79,2.34,2.31,4.12,3.32,6.44s3.23-1.47,3.94-.74c3.63,3.71-5.89,5.41-5.94,7.01,4.79,5.88,12.17,3.54,11.99,13,5.88,3.33,2.66-10.71,7.93-5.98,1.8,1.62,2.11,9.15,10.05,9.01l-11.91,1.15-.11,5.83c-4.3.93-6.86-2.76-10.55-3.41-8.29-1.46-13.43,3.07-20.51,3.53-8.97.58-10.75-5.48-17.94,3.89-1.61,2.1-4.76,4.49.03,5.97,3.96,1.22,2.68-3.69,6.31-5.55,10.05-5.17,16.77,2.66,26.64,1.57,0,2.12.58,4.18-.86,6.12-1.04,1.4-29.6,6.05-34.18,6.68-6.57.9-21.27-.07-25.7,1.45-4.19,1.43-2.55,9.77-8.23,9.77-2.86-3.31,3.45-7.25-2.07-10.04-5.89,5.52-12.03.52-17.67,1.95-2.07.52-.03,6.13-5.27,4.04l-1-3.96-4.98,3.98c2.38-3.68-9.69-4.99-12.26-4.99-4.66,0-8.87,2.73-10.38,2.53-9.52-1.29-19.35-7-30.54.37l-2.02-3.92c-7.19,4.82-8.46-3.29-13.93-4.06-10.75-1.51-26.91,9.19-38.89,6.06.9-5.55,13.94,2.55,11.98-5.97-4.45-1.13-9.49,3.38-13,3.21-3.28-.16-7.23-5.45-11.07-2.3l-2.89,5.09-4.95-2.12,1.93-3.89-10-2.01,2,5.98c-5.81,3.18-14.32-2.35-18.76-1.46-2.58.52-3.68,4.61-7.25,3.45l-.99-7.94c-6.26,6.33-17.88-2.07-22.04,8.03l-9.84-4.04c-3.58,5.29-3.76,7.25-11.13,5.94l2.98-6-7.92,6.18-33.08-2.18c4.11-7.82-3.09-4.5-3.03,2.13-19.65-.86-42.64-6.9-62.11-4.29-4,.54-2.56,4.47-3.81,4.19-12.11-7.89-29.86-3.02-43.78-4.28l-3.27-9.75c-6.32-1.66-3.88,6.59-7.96,9.05-3.16,1.9-20.9,3.2-21.01-3.03-3.83,6.4-7.95,2.13-11.99,2.43-11.08.83-30.39,6.09-37.01-4.42l16-.04-2.05-3.97,6.02-1.99-11.98-.04v-1.96s9.98-2,9.98-2l-20-.04-1.97,8.01-.96-7.72-9.05-.29,5.98-3.96-7.97,3.96c-16.25-8.51-33.89-.04-49.37-.5-4.96-.15-16.72-4.23-22.69-4.45-2.14-1.55-2.46-2.74,0-4.07,5.17-2.79,15.41-1.55,20.62-3.04,1.68-.48,1.26-3.67,2.66-3.84,4.62-.55,18.61,1.84,22.27.59l7.48-10.65c6.89,9.25,23.72-9.95,28.01,3.99l4.3-5.79,55.86-.42,3.82,4.18,13.01-7.98-89.98,1.96c-.52-3.41,3.6-1.49,5.92-3.14,1.62-1.15,1.62-4.39,3.48-4.89,11.2-3,45.21-.37,59.31-.3,3.78.02,7.78-2.28,12.31-1.88,9.23.82,14.96,2.4,25.97,1.37,12.31-1.15,24.08-4.96,37.01-3.14.38-6.93-.61-14.06.01-20.99,2.37-26.57,5.84-61.92,10.05-87.95.38-2.36,1.23-4.73,3.91-5.07,3.86,10.25-7.75,26.28,0,32-1.21-6.68,1.43-12.81,2.01-19.01.78-8.46,1.52-23.37,1.19-29.93-.12-2.34-4.54-5.27-3.16-9.07l3.97.99c3.16-7.5.09-15.2.58-21.56,1.78-23.11-.07-31.42-.68-52.37-.48-16.35,5.61-38.67,6.19-56.15.16-4.89-2.46-9.4-2.3-13.98.13-3.63,3.78-2.61,4.2-4.28.75-2.97-1.86-8.88,2.03-8.64-.11,9.64.16,19.34,0,29ZM345.77,354.05c.76,5.89,12.81,8.56,13.99,2.95,1.46-6.98-11.23-3.6-13.99-2.95ZM325.75,380.05l-11.95-1.03c4.95,1.76,9.04,7.77,11.95,1.03ZM340.98,381.15c-2.65,2.71-7.77,2.72-2.21,6.83l5.04-6.95c-1.3-7.57-1.56-1.18-2.83.12ZM353.75,378.03h-2.96s-5.03,5.97-5.03,5.97l7.99-2.01v-3.96ZM495.75,534.02c-.58-4.08,1.28-8.34.9-12.31-.98-10.35-24.91-78.12-30.47-89.1-6.5-12.84-37.93-44.52-53.04-42.63-.37.05-5.32,4.89-5.31,5.26.01,2.1,2.29,4.52,1.68,7.39-.75,3.52-6.84,4.63-5.72,9.38,6.66-2.11,9.47-6.7,17.45-7.55,1.93-.21,6.28-1.67,4.53,2.53-3.66,8.78-19.11,3.26-15.97,19.02,12.08.43,14.98-18.3,27.98-15.98l-11.99,13.97,16-7.96-6,9.96,10,.04-1.53,3.66,3.52,1.31c-1.66,4.05-11.92,8.98-12.97,10.91-.91,1.67,2.08,9.98-5.02,14.07h11.98s.03,6.04.03,6.04c5.86-2.21,10.41-2.35,10.16-9.88l11.78,2.87-11.95,12.01,3.99,1.98-5.75,5.62,18.34,34.8,7.71,3.48-.29,5.08,11.99-7.96-4.09,3.28.1,8.69,5.97-1.98-3.98,7.98c6.64-1.58,5.73,3.45,9.98,6.02ZM251.77,396.04c-7.56-.79-15.49,4.06-20,9.96l7.89-1.44,12.11-8.52ZM341.77,402c6.18.27,15.02-2.71,5.03-5.97l-5.03,5.97ZM423.76,426.04c-7.34-.2-10.46,5.06-9.99,11.97l9.99-11.97ZM435.76,436.04c-3.85-.78-5.55,2.64-7.98,5.01v2.96s3.94,0,3.94,0l4.04-7.97ZM407.77,456.04c-4.5-.73-8.38,1.78-10,5.96,4.5.73,8.38-1.78,10-5.96ZM323.75,470.03c-.17-.21-4.06.09-4.99-1.97-3.1,2.1-3.46,4.31-2.98,7.96l6.99-1.94c1.27-.72,1.39-3.54.98-4.04ZM391.75,502.01c7.55,5.4,13.96-18.78,7.02-21.94-2.42.12-13.27,23.07-21,19.98,1.32,10.99,10.5-2.69,14.99-2.03l-1.01,3.99ZM195.76,502.04c-12.68-.55-15.27,13.76-15.98,23.97l13.97-13-5.97-2.97,7.98-8ZM373.57,513.84l-.8-5.8-7.01,7.97,7.81-2.17ZM247.75,546.02c-.12-5.64.24-11.36.02-17.02-.1-2.42,1.51-7.44-1.98-6.97-.48,6.15-4.07,19.93,1.96,23.99ZM187.75,528.03c-9.13,1.12-16.64,3.13-15.97,13.99,2.2-.67,18.96-11.15,15.97-13.99ZM189.78,560.01c-1.86-6.62,7.16-3.61,7.88-7.15l-1.91-12.84c-5.99,4.82-11.57,16.19-19.02,7.99l-1.95,4-1.06-7.02-3.92-.97c-4.19,3.89-11.03,39.62-15.41,47.45-2.07,3.7-5.81,3.54-7.55,6.58-.69,1.21-5.03,16.05-4.98,17.05.16,3.24,5.38,8.09,8.01,9.81,4.56,3,11.32,2.91,13.89,7.08l-17.99-1.96c2.84,6.31,13.06,6.96,19.11,6.14,3.41-.46,3.63-6.01,8.9-4.18-6.53-13.4,16.59-38.37,14.05-50.69-.34-1.63-5.2.76-2.72-9.41,1.39-5.7,2.05-11.69,8.65-9.9l-3.98-1.99ZM513.76,580l-2.02-7.97h-1.95s-1.97,5-1.97,5c1.78,2.14,3.03,3.62,5.95,2.97ZM267.76,592.03v21.98s2.01,0,2.01,0v-21.98s-2.01,0-2.01,0ZM512.79,620.85c1.86,1.91,2.56,5.26,5.93,5.31,2.85.04,7.88-4.92,8.67-7.58,1.69-5.74-2.75-29.08-11.63-23.54l3.93,22.01-3.87,2.97-6.04-5.98c-1.25,1.02,1.86,5.62,3.02,6.81ZM259.79,658.02c5.49-1.96,5.39-8.69.97-11.99l-.97,11.99ZM281.75,650.03l-5.13,4.1-4.85-2.12-4.01,29.99c9.74-.81,16.29.42,15.98-11.98l-4.17,7.83-5.83-.83c6.6-3.86,7.61-19.03,8.01-26.99ZM305.76,682.04c-3.99-1.3-9.66,2.07-12.73,1.45-2.59-.52-3.68-4.62-7.25-3.46,3.15,7.59-5.24,12.32,0,19.97h-5.99s1.98-15.97,1.98-15.97l-7.1,1.96,1.09,8.03-7.96-9.99c.32,3.41-.74,7.48-.05,10.69.43,2.02,5.95.03,4.01,5.32l-3.98-1-1.98,28.99,11.97-.02v-6s-7.99-1.97-7.99-1.97l8.27-1.21c.3-4.57.56-9.07,5.71-10.81l-3.89,19.9c7.94-.53,12.44,10.98,19.9,10.12.95.82-3.67,7.72-4.04,7.96-.54.35-7.85-6.46-11.94-3.96-1.86,10.59,5.48,10.3,12.01,15.04l-4.01,10.95c9.67-.59,12.69-4.18,11.97-14-2.02,1.75-7.94,2.24-7.95-.99-.01-4.47,7.46-.79,7.77-1.04,3.97-3.08.7-12,.47-15.07-.07-.91,2.95-.67,3.55-2.41,3.64-10.68-1.79-11.22-1.81-15.49-.01-2.98,5.22-5.89,1.98-11l-6.9,2.14-1.13-4.12c-.47-.36-8.05,7.28-9.96.02,8.03-4.61,5.28-6.75,15.98-4.05l-2.05-7.96-3.92,1.97-1.93-9.83,7.91-4.16ZM381.75,914.02c-1.68-6.16-5.5-11.21-7.4-17.58-14.45-48.44-18.56-113.32-31.14-164.86-.83-3.41-1.41-8.39-5.42-9.56-3.66,18.95-6.52,38.1-9.82,57.13-1.28,7.37-4.82,18.3-5.99,28.08s-1.79,19.28-2.19,28.78c2.81.48,2.92-3.54,3.41-5.54,2.12-8.76,3.72-19.41,4.59-28.44,3.44-.5,2.13,4.74,1.96,6.95-1.67,22.35-8.51,46.72-12.01,69.02-3.55.46-1.93-4.69-1.88-7.06.19-9.62,3.89-20.16,4.67-29.36.25-2.92,1.4-4.5-2.74-5.57-.24,18-6.42,35.32-8.1,53.09-.72,7.64,3.77,17.3-1.91,26.89l35.98-2c-.91,7.76,2.66,8.95,5.3,1.97l32.7-1.96ZM277.75,738.01l-.98-7.98c-3.08,2.16-3.48,4.29-3,7.98h3.98ZM427.75,850.04c-5.53-18.68-1.35-39.55-3.92-59.08-.45-3.43.81-6.46-3.06-8.9-7.51,5.07.5,12.94.99,17.04.12,1.04-3.12.7-3.57,1.87-1.16,3.02,2.59,8.5,2.56,11.17-.07,6.66-3.78,13.41-1.18,20.58l-7.79,3.3c.14-5.08-.75-10.25-1.96-15.15-.83-3.37,1.99-5.84-4.05-4.84l1.98,20-3.67-1.54-1.3,3.52-8.01-19.95c-3.91,2.65-2.99,4.53-2.55,8.45,1.35,11.75,8.16,25.59,7.71,38.33l-8.13,3.2c-2.52-4.77-1.79-10.44-2.69-14.74-.55-2.61-3.61-5.99-3.38-.27l12.06,50.97,3.96-19.98c2.66,11.52,1.45,31.9,17.09,30.15,2.68-.3,3.76-.23,5.95-2.14,11.12-9.71-.63-48.98-1.04-63l4.01,1ZM393.97,807.66l-4.21,1.19,2.25,7.95,4.21-1.19-2.25-7.95ZM257.78,880.01l-1.99-19.98c-1.07,18.32-19.83,57.05,11.98,51.98l1.98-51.98-6.24,16.73-5.73,3.25ZM301.78,916.02c5.32-2.24,6.29-8.89,5.96-14-4.63,1.97-5.09,9.72-5.96,14ZM363.75,924.04l-16.6-1.17-19.38,3.13c8.82-.99,18.51,1.03,26.99.89,2.05-.04,9.39.25,8.99-2.84ZM179.76,926.04l-13.98.97c2.35,3.46,12.8,3.54,13.98-.97ZM215.77,926.02h-28c4.67,6.67,12.33-1.81,14.98,7.97l13.02-7.97ZM389.74,964.01c.47-.46,1.32-6,3.99-6.99l-2.97-2.98c-1.87,1.47-3.65,8.49-2.97,9.98.65-.1,1.67.28,1.96,0ZM461.76,956.03c-2.01-2.04-8.03,3.9-5.98,5.98s8.03-3.9,5.98-5.98ZM513.75,962.01v-2.96s-3.97-3.03-3.97-3.03l-2,8,5.97-2.01ZM313.75,958.03h-9.98s0,1.97,0,1.97l9.97,2.02v-3.98Z"/>
      <path class="st0" d="M225.76,736.04c-4.31,6.84,1.91,11.7,1.83,18.74-.17,14.98-4.02,40.19-6.08,55.99-1,7.67-1.17,22.43-9.89,13.89-.99-14.72,6.29-31.02,7.75-44.24,1.45-13.15-3.66-28.68,1.86-41.92,1.21-2.9.59-3,4.52-2.46Z"/>
      <path class="st0" d="M151.76,654.05c-1.46,4.05-1.86,3.74-5.3,2.33-2.13-.87-24.9-10.33-20.68-14.35l25.99,12.01Z"/>
      <path class="st0" d="M165.78,658l13.97-7.98c1.48,9.82-7.05,8.25-13.97,7.98Z"/>
      <rect class="st0" x="229.78" y="606.01" width="17.98" height="2.01" transform="translate(-368.34 845.56) rotate(-89.98)"/>
      <path class="st0" d="M119.74,620.03c1.23,3.68,1.29,6.3,0,9.98h-1.95s-2.02-9.97-2.02-9.97h3.97Z"/>
      <path class="st0" d="M367.76,876.01c-5.41,1.38-4.53-4.09-5.34-7.58-7.49-32.24-11.85-65.65-16.63-98.39l3.41,5.55,18.56,100.43Z"/>
      <polygon class="st0" points="369.76 888.01 365.78 888.01 365.79 880.03 367.74 880.04 369.76 888.01"/>
      <polygon class="st0" points="291.76 718.04 289.75 728.03 283.76 725.97 285.62 719.24 291.76 718.04"/>
    </g>
  </g>
</svg>