<?xml version="1.0" encoding="UTF-8"?>
<svg id="Layer_1" data-name="Layer 1" xmlns="http://www.w3.org/2000/svg" viewBox="0 0 686.55 707.81">
  <defs>
    <style>
      .cls-1 {
        fill: #033095;
      }
    </style>
  </defs>
  <path class="cls-1" d="M681.91,128.88l-3.43.4.03,3.93,3.95,2.78-16.03,113.26c-3.48.91-4-1.46-6-2.98-5.55-4.22-29.83-34.96-32.99-34.97l-129.02,145.08h-3.98c-8.71-5.43,2.18-10.84,6.83-17.3,6.1-8.48,12.94-18.27,17.15-27.82-9.41,4.38-25.67,29.83-33.52,31.6-6.38,1.44-10.32-3.99-16.45-3.63l5.99-13.95-14,7.96,119.96-156.98-41.95-23.03,3.97-3.95-11.98-4,13.99-.04c-.54-1.05-1.47-3.09-.89-4.03,2.08-3.35,63.87-24.69,73.42-28.43,21.14-8.27,41.99-18.62,63.46-25.55l1.98,6.01,2.05-7.97c3.64-.51,1.45,3.59,1.31,5.77-.87,12.89-7.54,24.95-3.86,37.83ZM580.46,205.26c6.09-5.1,15.32-13.85,15.96-22-5.54,5.89-15.53,13.67-15.96,22ZM520.46,309.26c3.26-1.44,6.62-4.39,5.96-8-3.26,1.44-6.62,4.39-5.96,8Z"/>
  <g>
    <path class="cls-1" d="M461.89,5.81c11.11,28.34,24,56.54,33.51,85.49,5.46,16.63,14.45,30.92,3.05,46.98-6.98,9.82-64.43,43.5-77.93,50.07-8.24,4.01-17.29,5.97-25.8,9.2l1.7,57.71-5.97-1.99c.28,4.31-1.7,16.13,2.99,17.99l2.97-3.98v15.98s-5.96-1.99-5.96-1.99c1.26,11.5-1.71,26.13-.19,37.14.55,4,6.97,2.22,2.81,9.93l58.4,30.95,2.04-4.17c33.2,13.35,47.97,17.37,42.41,56.65-4.64,32.73-17.91,65.81-24.16,97.85-1.66,8.53,2.4,14.99-7.33,23.63,38.02,8.47,71.15,43.8,69.97,84.01l-10.22-26.74c-2.39-3.65-3.95-8.3-7.29-11.22-1.35-1.19-5.59-3.93-4.45.94,5.47,7.75,11.1,19.02,9.96,29.02l-3.96-3.98c-.73,4.45,4.02,10.25-2,11.99,2.61-8.47-3.68-7.72-5.73-11.2-12.06-20.52-26.15-37.99-51.51-42.58-25.62-4.63-52.83,1.12-75.39,14.17-5.43,3.14-14.84,11.97-18.42,13.6-1.05.48-3.38.39-2.96-.97,3.34-6.99,9.05-10.6,14.65-15.35,1.76-1.5,6.49-3.92.38-3.63-6.39-.07-21.96,22.8-25.04,19.95,7.03-16.43,23.23-21.19,36.68-30.29,2.05-1.39,6.25-4,.36-3.65-23.74,8.9-37.78,26.39-51.04,46.99l11.97,12-5.98.99,3.98,13.98c-10.95-10.02-22.84-20.48-36.92-26.04-14.8-5.84-40.08-2.53-54.84,3.27-24.74,9.71-41.44,26.44-40.23,54.77l-3.52-4.44,1.52-22.58-12.98,33.01-3.03-12-3.97,2.03c-1.31-12.62,3.95-24.46,9.65-35.35l18.34-26.64c-17.84-8.25-31.98-14.25-49.99-2.03l-.98-5.97c-4.36,3.22-9.76,4.61-14.04,7.97-3.64,2.86-18.1,22.69-21,19.98,6.84-11.92,14.18-24.99,24.65-34.33,1.71-1.53,6.55-3.83.39-3.62-10.61,2.45-23.28,23.04-30.06,25.96-7.24,3.11,1.9-11.5,3.03-12.98,6.1-8.02,30.28-28,39.52-30.48,19.64-5.26,46.57,1.17,62.46,13.48,6.85-35.15,6.1-73.66,12.52-108.5.77-4.16,3.67-18.4,4.82-21.04,1.34-3.09,5.87-3.23,6.37-5.57,1.95-9.11-2.23-31.97,3.6-41.87l-5.26-15c-3.05,18.85-3.79,38.08-6.01,57.03-.35,2.98-1.59,6.13-4,2.95l7.98-77.98c-8.7,2.72-13.89,6.41-23.48,2.47-2.26-.93-32.12-27.28-36.59-31.4-3.16-2.91-4.74-7.15-7.87-10.13-10.22-9.7-36.84-30.53-42.9-41.1-12.43-21.69,5.05-38.13,18.86-52.84s65.17-66.26,81.52-72.48c2.32-.88,13.8-4.86,14.46-.55-22.87,2.27-32.28,18.37-45.99,34,12.08-4.75,18.33-18.7,29.89-25.09,13.22-7.31,26.08-5.09,38.98-11.02l27.11,46.12c-.45-9.29,5.71-24.53,4.09-32.98-1.12-5.82-10.32-6.24-9.16-13.19,2.14-10.73,29.1-12.81,29.11-.85l-7.64,13.67,11.59,31.34,16.99-54.01c2.27-2.22,7.41-2.79,10.62-3.47,16.8-3.56,34.75-8.41,53.13-16.79,4.28-1.95,31.91-16.5,32.85-18.12,6.89-11.88-21.92-54.69-23.2-69.21-.54-6.06,5.23-13.98,3.64-22.37l-4.99,5.97c-10.85-22.87,18.85-29.25,34.44-17.44ZM454.42,13.26l-2.97-7.99-2.97,2.99,5.94,5ZM260.42,339.25c1.06-9.85-5.14-15.66-7.41-25.54-5.9-25.62-.16-55.07-9.55-80.44l-41.08,38.99c11.13,18.68,29.73,30.18,44.03,46.04l14.02,20.95ZM430.19,423.5c-19.38-4.07-40.4-13.63-59.25-17.76-2.55-.56-5.65,1.14-8.58.6-8.71-1.62-16.88-5.39-25.87-5.02l-32.07,163.93c-3.38.08-4.35,1.14-3.85-2.82,1.99-15.68,5.38-30.93,7.69-46.35.31-2.05,1.79-9.19-1.81-8.81l-14.02,69.97,29.98,8.04c-3.44,7.03-16.61-6.3-19.97-.05l31.08,15.54c5.7-3.9,5.88-11.29,8.84-16.58,1.52-2.71,8.83-5.7,5.07-8.93l-8.02,7.98c-3.38-5.2,6.9-8.65,9.87-12.13,8.95-10.46,20.5-26.63,35.1-31.1,5.84-1.79,7.11,2.82,10.14,2.36,1.13-.17,20.39-8.03,20.96-9.02-4.23-13.95,4.05-26.34,6.39-39.65,4.07-23.16,5.61-46.89,8.3-70.21ZM422.43,547.28c-3.89.51-17.06-1.04-15.98,5.97l15.98-5.97ZM242.41,579.25l2-21.98-3.41,15.58,1.41,6.4ZM370.44,557.28c-6.16-.05-11.33,1.95-14,7.96,5.23.33,11.37-3.59,14-7.96ZM510.46,601.26l3.94-3-5.94-5,2,8Z"/>
    <path class="cls-1" d="M362.42,49.25l-5.94-3.04,5.98,25.06,3.97-2.03c2.57,21.93-10.01,38.21-25.97,51.02l9-5c2.8,4.31-6.84,10.85-10.9,13.1-9.91,5.47-21.01,8.02-32.21,5.98-3.31-.6-30.28-11.47-30.99-13-1.21-2.62,2.28-5.84.91-7.8-.4-.57-4.43-1.45-6.73-4.35-3.04-3.85-6.24-9.02-7.13-13.92-6.14,1.97,4.87,15.32,4.02,15.97-6,1.75-8.15-4.16-10.34-8.63-7.04-14.4-8.09-35.52-4.29-50.97,1.02-4.13,10.48-23.56,14.55-20.26l1.06,3.88c6.69-3.69,8.85-12.66,12.95-17.05,19.5-20.93,80.87-1.89,82.04,31.05ZM284.44,31.28c-6.9-.07-12.93,7.53-13.99,13.97l13.99-13.97ZM314.43,127.28h-13.98v1.96h13.98v-1.96Z"/>
  </g>
  <g>
    <polygon class="cls-1" points="130.42 477.22 116.44 483.24 129.46 473.28 130.42 477.22"/>
    <path class="cls-1" d="M102.46,499.26c-.66-3.61,2.7-6.56,5.96-8,.66,3.61-2.7,6.56-5.96,8Z"/>
    <path class="cls-1" d="M224.44,409.28l-29.47,37,4.47,4.94c5.39-6.05,9.71-12.66,16.05-17.91,2.1-1.73,8.08-7.42,10.93-5.07l-31.19,34.88c-15.29-8.88-30.57-15.35-48.79-13.84l17.98,5.95c-9.22,1.18-16.55.56-26,3.02-31.96,8.34-55.91,42.08-49.98,75.01,6.31,1.63,3.74-8.84,4.9-14.1.25-1.11,4.44-17.79,5.08-8.96l-2.01,31.04-5.96-5.99c2.42,18.79-2.81,25.3-20.07,30.94-5.6,1.83-15.97,1.2-18.14,3.94-1.63,2.06.26,4.93-.92,6.94-2.72,4.64-7.83,8.61-10.31,13.75-3.57,7.4-5.11,18.26-6.64,26.4h-5.95c1.49-2.6,2.39-9.45-1.97-9.97.25,8.01.19,22.51,3.44,29.57,1.53,3.34,5.53,3.87,6.62,5.85,3.08,5.56,3.35,11.27,7.93,17.56,12.5,17.19,36.25,22.63,57.07,21.08,10.08-.75,20.73-4.97,30.92-6.05l-5.98,5.96,11.98,1.02c-20.99,14.44-46.71,18.49-71.29,11.3-7.66-2.24-13.24-6.51-20.7-8.28,11.01,15.96,31.18,15.8,48.07,18.93,2.11.39,6.46.18,5.92,3.03-45.1,5.55-93.4-30.04-99.75-75.22-1.54-10.95-.79-39.18,5.68-48,2.07-2.82,5.33-.86,5.73-1.22,1.33-1.23,3.02-8.29,5.48-11.41,11.12-14.16,21.12-26.53,38.01-34.12-9.12-57.18,37.31-111.29,94.19-115.83,3.43-.27,17.27-.09,18.66,3.8-18.86-.19-41.8-.08-55.99,14,26.85-10.43,49.67-14.48,76.78-1.82,2.84-4.91,7.01-13.43,12.11-16.27,4.01-2.23,7.7-1.39,11.03-2.97,4.12-1.96,6.24-9.45,12.08-8.9ZM142.43,445.28c-14.84,1.13-31.46,9.44-39.99,21.96l18.62-12.36,21.37-9.6ZM97.93,470.77l-11.02,10.93,2.03,2.05,11.02-10.93-2.03-2.05Z"/>
    <g>
      <path class="cls-1" d="M541.44,445.26c34.57,4.34,64.6,35.21,67.96,70.04,39.35,10.34,75.66,58.17,62.9,98.76l3.95,2.05c-6.66,21.51-12.42,42.71-29.79,58.18-3.88,3.46-12.78,11.45-18.01,9.99,11.95-9.14,21.74-17.29,29.57-30.42,1.44-2.42,5.87-7.95,3.42-10.58-23.2,36.95-68.88,62.63-113.01,53.97,2.46-7.22,8.74-2.11,13-2.37,18.32-1.1,41.83-1.95,55-15.59-3.81-.82-5.87,3.01-9.23,3.42-16.07,1.97-38.53,1.21-55.3,2.09l-15.46-5.51c21.75,2.2,65.11.44,81.92-15.1,2.79-2.58,2.83-6.58,4.68-8.33,4.52-4.28,11.45-7.94,15.38-13.6l-17.98,10.02c42.66-31.67,15.9-116.05-40.02-103.03l1.46-3.55c-10.12-4.15.31-11.06.49-11.81,3.31-13.86-7.41-39.96-17.9-49.67-15.57-14.41-27.11-9.16-46.04-12.98l5.98-5.96-19.99,3.96,17.36-11.52,24.62,1.53c.96-5.72-1.2-3.33-4.62-4.26-5.78-1.58-11.39-2.17-17.37-1.75l1.99-5.97-13.99-2.02c9.23.82,20.01-1.13,29,0ZM662.42,609.25c1.09-22.43-7.47-46.46-25.96-59.99l15.45,25.53,10.51,34.46ZM638.46,639.26c6.41-5.07,8-16.51,7.96-23.99l-7.96,23.99Z"/>
      <path class="cls-1" d="M618.44,691.28c-7.45,9.52-22.85,9.83-33.99,9.96l33.99-9.96Z"/>
      <path class="cls-1" d="M580.42,533.25l-3.96-15.98c5.21,2.04,3.8,11.53,3.96,15.98Z"/>
    </g>
    <path class="cls-1" d="M392.44,447.26c4.02,5.29,8.07,10.48,10.02,16.98l-16.02-2.96,5.98,11.98c-10.76-11.87-29.64-21.33-45.96-20l7.29-24.09c9.84-2.39,28.93,5.89,36.12,12.73,1.59,1.51,1.63,4.11,2.57,5.35l-8-1.98,7.01,5.97.99-3.99Z"/>
  </g>
</svg>