<?xml version="1.0" encoding="UTF-8"?>
<svg id="Layer_1" xmlns="http://www.w3.org/2000/svg" version="1.1" viewBox="0 0 841.98 555.07">
  <!-- Generator: Adobe Illustrator 30.0.0, SVG Export Plug-In . SVG Version: 2.1.1 Build 123)  -->
  <defs>
    <style>
      .st0 {
        fill: #0045D6;
      }
    </style>
  </defs>
  <g>
    <path class="st0" d="M461.98,551.6v-116h48.5c7.6,0,21.95,5.32,28.41,9.59,28.9,19.13,28.48,80.5-.99,98.82-4.18,2.6-16.82,7.58-21.42,7.58h-54.5ZM486.98,530.6h21.5c4.55,0,14.7-4.51,18.03-7.97,11.78-12.19,11.8-45.8-.63-57.44-3.08-2.88-13.42-7.6-17.4-7.6h-21.5v73Z"/>
    <path class="st0" d="M675.77,433.89c33.18-3.6,56.37,14.47,61.09,47.32,6.11,42.57-16.98,80.28-63.93,72.94-58.65-9.17-58.89-113.56,2.85-120.26ZM680.73,454.86c-41.34,5.45-32.78,92.42,12.22,77.21,30.19-10.21,27.37-82.43-12.22-77.21Z"/>
    <path class="st0" d="M211.98,467.6h-25c-4.3-13.18-21.45-15.87-32.98-11.48-10.02,3.82-12.96,15.12-2.72,20.69,18.22,9.9,54.08,4.13,61.65,32.35,15.07,56.22-94.31,62.54-95.94,8.44h25c2.48,16,21.75,18.58,34.86,15.36,14.61-3.59,16.95-18.11,2.83-24.55-19.97-9.1-57.21-3.44-60.58-34.41-5.53-50.83,87.62-55.21,92.89-6.4Z"/>
    <path class="st0" d="M365.98,435.6v82.5c0,.28,1.46,4.48,1.79,5.21,5.61,12.51,29.45,13.14,38.43,4.3,1.83-1.8,5.78-9.27,5.78-11.51v-80.5h24v85.5c0,2.86-4.04,12.48-5.8,15.2-16.12,24.85-70.68,24.99-84.63-1.76-1.03-1.98-4.56-10.88-4.56-12.44v-86.5h25Z"/>
    <path class="st0" d="M322.98,435.6v22h-35l1,94h-23.5c-.36,0-.81,1.63-1.5.51l-.98-1.01c.04-.38.98-.69.98-1v-92.5h-35v-22h94Z"/>
    <rect class="st0" x="582.98" y="435.6" width="25.08" height="117"/>
  </g>
  <g>
    <path class="st0" d="M196.96,2.58l.64-1.94c13.4.54,28.33,3.41,40.43,9.41,33.96,16.85,39.63,54.08,21.37,85.46-14.79,25.42-39,47.75-64.11,62.88-1.6.96-7.02,2.93-7.3,3.21-1.84,1.89-.65,1.38,1.05,1.6,18.74,2.41,35.52,6.62,49.47,20.36,12.54,12.35,13.52,31.37,6.97,47.02-19.42,46.37-96.23,89.13-142.73,103.27-9.69,2.95-23.61,7.21-33.38,8.63-1.05.15-3.64.84-3.38-.89,11.84-2.84,23.53-7.15,34.74-11.78,2.5-1.03,2.09-1.3-.24-1.24-17.44,3.77-34.81,10.51-52.3,13.72-4.89.9-33.65,4.97-36.2,2.28-.29-2.58,0-1.59,1.45-2.01,10.22-2.99,21.82-4.58,32.19-7.83,1.33-.42,3.04-.35,3.35-2.14-15.08,2.7-30.67,3.31-46,3.98-.31-.23.51-1.19.99-1.5,5.18-3.35,36.15-8.56,45.01-10.99,19.38-5.33,38.26-12.39,56.99-19.51.26-1.76-2.3-1.03-3.26-.76-6.71,1.82-14.07,4.99-20.96,7.05-23,6.86-46.68,14.53-70.35,18.65-1,.17-3.68.79-3.41-.91,52.83-15.23,105.19-34.14,150.06-66.47,11.72-8.45,27.64-22.16,36.77-34.21,6.29-8.31,16.24-19.38,3.55-26.21-15.95-8.57-35.36-6.37-52.86-5.11l-36.28,5.22c-5.09,15.04-9.76,30.37-15.22,45.28-3.83,10.45-13.04,38.87-18.56,46.44-.56.76-1.27,1.38-1.96,2.02-2.61-1.96-1.06-5.43-1.62-8.36l-1.87-7.61c-1.02,4.92,1.48,8.89-1.16,13.36-.69,1.17-7.88,9.8-8.84,8.64l2.5-6.99c-1.97,1.27-4.78,5.75-6.54,6.51-1.19.51-2.54-.45-3.9.01-.77.26-9.1,7-9.75,7.79-1.4,1.71-1.3,4.99-3.3,5.69-1.09-16.4,5.35-32.01,8.76-47.73.22-1.01,1.01-3.51-.76-3.26-5.54,14.87-7.86,32.41-13.56,46.97-1.11,2.83-1.79,5.12-5.45,5.01,2.31-37.46,19.78-71.69,29.01-107.48.13-2.64-18.06,5.73-20.01,4.48-.48-2.16,3.36-3.78,4.86-4.63,4.79-2.71,10.23-4.19,14.13-8.36l-19.99,3-.56-3.03,8.55-6.48h-6.99s27.52-13.48,27.52-13.48l33.48-117.01c-14.54,3.93-27.61,11.65-41.75,16.74-5.94,2.14-13.73,5.34-19.86,6.14-1.06.14-4.56.94-4.38-.88,8.17-4.1,17.66-8.34,25.35-13.16,1.02-.64,3.08-2.06.17-1.84L3.25,97.39l-3.25-1.29c27.54-29.43,60.81-54.11,98.99-67.99,2.08-2.08.59-1.69-1.13-1.13-10.02,3.28-20.25,10.26-30.87,9.13,19.49-12.7,40.73-23.34,63.54-28.92,4.32-1.06,20.55-4.41,24.01-4.14,1.01.08,1.85,1.91,2.41,1.53.09-.06-.25-1.74.68-1.98,2.53-.66,10.86-1.59,14.01-1.93,7.17-.76,18.87-1.57,25.32,1.92ZM227.71,53.87c-8.35-8.18-35.76-4.62-47.09-5.22l-20.65,4.43-33.99,97.5c1.51.38,2.34-.4,3.54-.95,16.89-7.73,30.03-20.97,45.57-30.43,2.6-1.59,9.38-3.47,11.23-5.52,1.13-1.24.37-3.03,1.66-4.58,5.15-6.22,20.05-13.69,27.98-23.04,5.14-6.06,19.26-24.84,11.75-32.2ZM109.72,57.34l-26.38,80.72,1.72.56,26.38-80.72-1.72-.56ZM56.97,262.6l14-48c-1.73.27-1.74,1.99-2.26,3.23-5.78,13.5-7.24,30.67-13.71,44.29l1.98.49ZM140.98,281.61c-10.08,4.5-20.34,9.14-30.01,14.47-1.47.81-4.42,1.98-4.98,3.51,6.34-2.17,13.06-5.4,19.02-8.47,5.21-2.69,11.4-5.92,15.98-9.51ZM146.98,306.61l-45.99,18.98c16.16-3.64,32.82-8.64,45.99-18.98Z"/>
    <g>
      <path class="st0" d="M298.48,68.6c-1.09-.13-2.81-1.59-4.51-1.01.25-4.66.91-4.31,5-6.51,5.64-3.04,12.57-5.28,19.01-5.49l-2.99-1.98,5.99-.02-1.99-2.98c7.16.06,15.43-1.44,21.99-4.51l-27.48,3.52c-1.64-5.11,10.53-7.62,14.45-8.55,10.4-2.47,27.15-5.64,36.54-1.47l1.11-1.95c17.44.38,35.25,4.53,50.3,13.54,18.7,11.19,37.14,36.03,32.81,58.65-6.53,34.04-49.29,65.18-80.73,74.78,15.51,31.09,29.04,63.19,38.94,96.57.06,2.86-.1,2.1-1.17.16-12.89-23.27-24-47.43-34.79-71.73l-.53,3.03c5.29,9.76,8.94,20.32,13.68,30.32,9.62,20.32,22.46,40.34,31.59,60.41,1.26,2.76,2.25,6.31,3.26,9.23-.99,1.08-5.31-3.64-5.99-4.5-4.15-5.19-7.58-12.61-12.51-17.49l7.5,15.99c-1.18,1.11-7.05-5.45-7.97-6.52-12.82-14.89-21.8-35.57-33.53-51.47-1.49.78.23,2.41.71,3.29,2.95,5.33,21.99,42.09,19.78,44.71-1.21-.43-2.5-1.16-3.41-2.08-6.88-6.95-23.08-35.06-29-45-7.54-12.67-13.63-27.75-21.42-39.58-1.11-1.69-2.49-5.22-4.58-5.29-1.87-.06-8.44,1.97-9.42,3.63l-9.36,29.55-18.83,44.77-1.96-.47c.94-9.41,6.31-18.16,7.73-27.28.17-1.07,1.07-3.47-.74-3.24-4.48,17.7-11.16,40.06-23.8,53.71-.99,1.07-1.04,2.79-3.21,2.28l6.99-20-1.88.86-1.1-1.85-6.02,18.99c-3.55-.74-.57-6.03-2.98-6.99-1.19,6.69-4.72,14.48-10,18.99,1.17-20.08,9.18-38.88,14.51-57.98,4.88-17.5,9.53-35.05,14.49-52.53l-1.13-.12-24.17,80.85-7.23,16.77c-1.68.22-1.59.08-1.5-1.49.37-6.46,3.82-18.71,5.51-25.51,10.17-40.97,23.64-81.36,36.45-121.55,7.23-22.67,13.34-46.41,22.31-68.69,1.74-4.33,3.03-9.15,6.74-12.26-2.48-2.44-11.28,3.49-10.99-1.48,3.59-.9,7.32-1.37,10.8-2.76,1.52-.61,2.7.6,2.2-2.25-7.46-.64-16.21.87-23.5,0ZM385.75,84.94l-26.72-2.92-2.05,1.08,2.07,1.09-28.08,77.4c8.81-3.63,17.56-7.96,25.85-12.64,14.22-8.02,36.9-22.51,46.58-35.42,13.44-17.92-1.27-22.23-16.67-27.02-.74-.23-.85-1.53-.99-1.57ZM427.99,114.6c5.07-3.18,4.04-15.19,1.49-19.99.26,6.98,1.74,13.38-1.49,19.99ZM294.97,174.59l16-51.99-1.73,2.74c-3.96,14.53-9.93,28.57-13.96,43.05-.32,1.15-2.42,5.87-.31,6.2Z"/>
      <g>
        <path class="st0" d="M554.98,268.6h-2.98c-.28-6.72-3.54-13.53-4.74-19.78-2.94-15.25-1.14-31.88-3.79-47.24l-53.96,18.04c-1.89,3.76-3.93,7.48-5.7,11.3-6.93,14.9-12.32,34.59-20.62,48.38-.54.89-.99,2.2-2.2,2.29-.33-3.31,5.33-8.94,1-11l-8.03,15.99-1.99-.49c-.08-1.6-.1-3.18.24-4.76,2.7-12.48,10.82-27.62,14.33-40.67.26-.98,1.03-4.04-.07-4.07-5.71,12.71-9.19,26.62-16.33,38.68-3.06,5.18-6.19,11.63-13.17,11.32-1.35-1.34,5.6-15.14,7-17.52l-2.01-.96c.96-2.99,4.94-7.85,5.46-10.41.26-1.27-.61-2.88-.23-4.3,1.18-4.47,3.23-9.23,3.28-13.81-6.83,14.58-12.27,29.88-20.03,44.02-.62,1.13.08,2.44-1.97,1.96-4.97-3.64-2.96-7.78-1.84-12.82,3.55-15.83,11.64-32.04,16.3-47.68-1.74-2.58-5.12.6-7.91-.6l-.06-2.89c-2.52-1.23-1.68,1.96-2.6,2.08-1.48.19-9.54-2.35-4.4-3.57l-4-1.51,1-3.98-6.99-.02,1.99-1.49-3.01-2,4.01-.51-1.98-2.49,1.98-1.5.5,1.99c4.23-6.76,10.2-6.17,16.2-8.8,5.96-2.62,11.52-6.16,17.78-8.22,5.43-13.71,11.59-27.13,17.27-40.73,3.35-8.01,6.39-16.48,9.64-24.36,11.76-28.47,23.57-56.98,34.85-85.66,4.09-2.9,20.39-.12,26.25-2.11,2.12-.72,1.76-1.66,3.02-3.11h1.47s1.44,2.74,1.44,2.74c4.49-1.46,17.81-.33,20.41,3.43.17.25-.84,1.41-.67,1.66.47.66,2.79.44,3.62,2.89.47,1.38.85,5.1,1.09,6.91,2.14,16.11.67,32.14.25,47.94-.01.46,1.65.25,1.87,1.12,1.08,4.4.95,4.52.95,8.75.01,15.52.11,31.05.07,46.55l1.98-16.51c.6-17.58.12-35.46,2.02-52.98.49-4.53,1.2-21.96,7.85-17.35l-1.45,88.39c1.96,4.33,6.24,1.33,10.06,1.4,1.11.02,5.14.49,4.54,2.54-.39,1.34-15.03,3.05-16.01,6.5,9.66.68,19.68-2.2,29.49-3l.51,2c-9.18,2.49-17.37,8.18-27,9.02l.48,1.97c4.55-1.24,9.21-2.12,13.81-3.19,1.26-.3,1.89-1.97,1.7.7l-17.92,9.6c2.01,5.23.02,10.45-.11,15.37-.59,21.3.07,43.75-2.09,64.91-.12,1.21-2.77,16.11-4.87,11.11-2.29-29.66-.72-59.76-.01-89.48l-1.98,10.5c-1.41,18.95-.6,38.2-2.93,57.06-.24,1.92-1.92.94-2.16,2.86-.82,6.53,1.67,26.37-.41,30.58-.23.46-1.3,1.26-1.51.98l.97-7.52-1.98-.48-1.01,10c-.22.31-1.19-.51-1.5-.99-6.41-9.78-11.09-23.81-10.54-35.53l-1.95-13.48v26ZM543.98,169.59c.47-9.24-1.51-18.28-1.99-27.43-.38-7.31-.75-14.79-1.04-22.03-.26-6.19,1.04-15.5.03-21.03-.31-1.72-1.06-2.8-2.98-2.5l-33.01,81.99,39-9Z"/>
        <path class="st0" d="M826.48,26.6c.56.09,1.47,1.28,2.49,1.01.32,1.45-.15,1.62-1.04,2.45-2.29,2.13-12.37,4.92-15.96,6.04-22.67,7.11-46.27,9.52-69.24,14.76-10.16,2.32-10.1,2.31-13.25,11.75-15.22,45.61-24.9,94.99-39.79,141.21-7.02,21.79-16.05,42.15-24.17,62.83-1.21,3.08-5.65,19.84-6.53,20.47-.97.7-3.04.38-4.57,1.43-1.89,1.29-2.94,5.09-3.94,7.05-3.01-1.15,3.1-10.73-2-12.98l-10.49,12.98c2.82-23.27,10.57-45.91,14.98-68.99l-23.13,63.38-1.35,1.56-2.56-1.6,1.03-16.34-1.98,1.01c-.02-1.13-.13-2.3.06-3.44,3.07-18.23,10.96-37.5,15.64-55.36,9.87-37.61,18.56-75.69,28.75-113.25,1.46-5.38,14.24-43.36,12.53-44.96-6.28-.3-12.37,1.38-18.55,2.03-12.29,1.3-25.39,3.13-38.03,4.88-6.8.94-18.84,2.91-21.96-4.88-.39-.97-1.51-7.81-1.3-8.44.58-1.74,3.04-.88,2.83-2.58-2.62.26-4.44-.36-5.99-2.52l2.99-1.48c-1.16-.38-8.21-2.6-8.54-2.91s-4.57-6.97-4.73-7.38c-1.18-3.05,3.98-7.99-.72-7.73l2.09-1.57-1.11-3.41c11.33-2.99,22.95-5.23,34.58-6.78,4.21-.56,1.68.93,6.21-1.15,2.82-1.29,25.24-2.67,29.77-3.04,23.1-1.89,46.06-2.51,69.44-2.06.04-1.62-4-1.4-5.16-1.43-5.07-.16-10.61.99-15.83.43,0-1.69,3.33-1.9,4.49-2,24.17-1.93,52.53.29,77.01.44,9.86.06,23.82-1.49,33.05-.49,1.51.16,2.48.1,3.43,1.55,0,1.12-4.35,2.24-5.57,2.41-9.51,1.3-20.42,1.05-29.9,2.1-12.84,1.43-25.6,4.01-38.5,5l89-3.54.99,1.52-18,3.02,1,2.98h-3.01s-.99-2-.99-2l-.1,3.91-15.91,4.1c6.59.74,15.19-1.01,21.5,0ZM687.09,66.48l-24.76,86.65,1.73.49,24.76-86.65-1.73-.49ZM685.97,186.59c4.78-10.3,6.53-21.88,9-32.99l-9.55,29.94.55,3.04Z"/>
      </g>
    </g>
  </g>
  <path class="st0" d="M734.97,326.59l-48.07-2.64c-5.6,1.11-11.63-.4-17.1-.15-1.64.07-6.22-.1-6.82,1.78,24.87-.5,49.34,1.76,73.99,4.02l-4.99,1.98,24,1.02-1.01,1.98,19.02,3.51c-10.6,1.93-21.22-.12-32.01.51l11.68,1.85,2.31,2.13c-7.82-2.26-15.32.47-23.53.04-4.15-.22-8.9-1.79-12.97-2.03-23.94-1.4-47.97-1.67-71.98-2.02-1.62,1.42,1.12.98,1.98,1,15.93.47,32.15.63,48.01,2.01,2.02.18,4.93.67,6.99,1.04,1.78.32,2.99-1.1,2.51,1.95-1.5-.7-2.72-1.03-4.43-1.06-43.41-.78-85.71-2.31-129.1-.98-5.07.16-10.12.04-15.07.14s-10.97,1.76-16.39.9c-1.62-1.23.02-1.81,1.48-2,8.25-1.05,19.34.31,28.06.04,2.36-.07,4.55-.97,6.92-1.08,4.32-.21,8.72.17,13.06.04.86-.03,3.6.41,1.98-1.01-32.77.14-65.36,2.31-97.99,4.01l-111.5,12.98c19.81-1.2,39.7-2.33,59.49-4,19.53-1.64,40.58-5.24,59.96-6.03,2.59-.11,7.36-.86,8.54,2.03-18.61,3.24-37.66,6.11-56.51,8-13.21,1.33-31.17,3.56-44.02,3.51-6.31-.02-4.95,1.08-11.08,2.39-16.09,3.44-35.25,3.22-51.8,5.2-34.46,4.14-70.44,11.44-106.22,16.78-19.49,2.91-39.37,4.14-58.81,7.16-18.98,2.95-34.48,7.54-54.06,7.97-2.12.05-6.24,2.79-5.51-1l29.49-7.01c1.63-1.4-1.04-1.01-1.86-.89-15.85,2.33-32.54,7.61-48.62,9.89-.51-2.83.67-1.65,2.19-2.25,11.79-4.68,27.09-8.07,39.59-11.46,49.7-13.49,100.39-22.86,151.21-31.3l-4.47-.97c-30.16,5.28-60.69,8.54-90.77,14.23-7.89,1.49-16.4,4.48-24.36,5.65-1.05.15-3.64.84-3.38-.89,27.46-6.6,55.08-13.14,82.79-18.72,111.4-22.43,226.16-30.64,339.75-34.25,32.74-1.04,65.06-2.81,98-1.08,9.61.5,28.11.95,36.68,3.32,2.02.56,5.12.85,4.77,3.72ZM649.97,326.61c-13.38-1.6-27.9-1.29-41.53-1.05-2.36.04-4.55,1.03-6.92,1.08-20.89.46-41.89-.25-62.55,2.46l111-2.49ZM521.97,330.61c-11.66-.09-23.75.37-35.25,2.24-.9.15-3.01.43-2.74,1.74l37.99-3.98ZM373.98,343.61c-11.73,2.06-23.57,3.39-35.36,5.13-1.58.23-6.02.44-6.63,1.85,11.53.06,22.67-3.09,34.03-4.45l7.96-2.53Z"/>
</svg>